<svg xmlns="http://www.w3.org/2000/svg" viewBox="0 0 720 560" font-family="Liberation Serif, Times New Roman, serif" fill="#000"><defs><marker id="ah" viewBox="0 0 10 10" refX="9" refY="5" markerWidth="8" markerHeight="8" orient="auto-start-reverse"><path d="M 0 0 L 10 5 L 0 10 z" fill="#000"/></marker><marker id="ahs" viewBox="0 0 10 10" refX="1" refY="5" markerWidth="8" markerHeight="8" orient="auto-start-reverse"><path d="M 0 0 L 10 5 L 0 10 z" fill="#000"/></marker><pattern id="hatch" width="6" height="6" patternUnits="userSpaceOnUse" patternTransform="rotate(45)"><line x1="0" y1="0" x2="0" y2="6" stroke="#000" stroke-width="1"/></pattern></defs>
<rect x="20.0" y="20.0" width="150.0" height="56.0" rx="6" fill="none" stroke="#000" stroke-width="1.4"/>
<text x="95.0" y="44.0" font-size="12" font-weight="bold" text-anchor="middle">Camera pipeline</text>
<text x="95.0" y="60.0" font-size="10" text-anchor="middle">frameBus (2K)</text>
<rect x="20.0" y="110.0" width="150.0" height="56.0" rx="6" fill="none" stroke="#000" stroke-width="1.4"/>
<text x="95.0" y="134.0" font-size="12" font-weight="bold" text-anchor="middle">LiDAR processor</text>
<text x="95.0" y="150.0" font-size="10" text-anchor="middle">SceneCloud, ground</text>
<rect x="20.0" y="200.0" width="150.0" height="56.0" rx="6" fill="none" stroke="#000" stroke-width="1.4"/>
<text x="95.0" y="224.0" font-size="12" font-weight="bold" text-anchor="middle">Vehicle interface</text>
<text x="95.0" y="240.0" font-size="10" text-anchor="middle">hub link, 50 Hz</text>
<rect x="20.0" y="290.0" width="150.0" height="56.0" rx="6" fill="none" stroke="#000" stroke-width="1.4"/>
<text x="95.0" y="314.0" font-size="12" font-weight="bold" text-anchor="middle">Navigation engine</text>
<text x="95.0" y="330.0" font-size="10" text-anchor="middle">OSRM route</text>
<rect x="210.0" y="20.0" width="150.0" height="56.0" rx="6" fill="none" stroke="#000" stroke-width="1.4"/>
<text x="285.0" y="44.0" font-size="12" font-weight="bold" text-anchor="middle">ML inference</text>
<text x="285.0" y="60.0" font-size="10" text-anchor="middle">4 TensorRT engines</text>
<rect x="210.0" y="110.0" width="150.0" height="56.0" rx="6" fill="none" stroke="#000" stroke-width="1.4"/>
<text x="285.0" y="134.0" font-size="12" font-weight="bold" text-anchor="middle">Scene reconstruction</text>
<text x="285.0" y="150.0" font-size="10" text-anchor="middle">mask-LiDAR fusion</text>
<rect x="210.0" y="200.0" width="150.0" height="56.0" rx="6" fill="none" stroke="#000" stroke-width="1.4"/>
<text x="285.0" y="224.0" font-size="12" font-weight="bold" text-anchor="middle">Sensor fusion</text>
<text x="285.0" y="240.0" font-size="10" text-anchor="middle">EKF pose, 100 Hz</text>
<rect x="210.0" y="290.0" width="150.0" height="56.0" rx="6" fill="none" stroke="#000" stroke-width="1.4"/>
<text x="285.0" y="314.0" font-size="12" font-weight="bold" text-anchor="middle">Map matcher</text>
<text x="285.0" y="330.0" font-size="10" text-anchor="middle">trace -&gt; road, 10 Hz</text>
<rect x="400.0" y="110.0" width="150.0" height="56.0" rx="6" fill="none" stroke="#000" stroke-width="1.4"/>
<text x="475.0" y="134.0" font-size="12" font-weight="bold" text-anchor="middle">Object tracker</text>
<text x="475.0" y="150.0" font-size="10" text-anchor="middle">IMM, Hungarian</text>
<rect x="400.0" y="200.0" width="150.0" height="56.0" rx="6" fill="none" stroke="#000" stroke-width="1.4"/>
<text x="475.0" y="224.0" font-size="12" font-weight="bold" text-anchor="middle">Motion predictor</text>
<text x="475.0" y="240.0" font-size="10" text-anchor="middle">paths, CPA, risk</text>
<rect x="400.0" y="290.0" width="150.0" height="56.0" rx="6" fill="none" stroke="#000" stroke-width="1.4"/>
<text x="475.0" y="314.0" font-size="12" font-weight="bold" text-anchor="middle">Road surface projector</text>
<text x="475.0" y="330.0" font-size="10" text-anchor="middle">lane-locked line</text>
<rect x="570.0" y="110.0" width="130.0" height="56.0" rx="6" fill="none" stroke="#000" stroke-width="1.4"/>
<text x="635.0" y="134.0" font-size="12" font-weight="bold" text-anchor="middle">Hazard classifier</text>
<text x="635.0" y="150.0" font-size="10" text-anchor="middle">flags, risk r</text>
<rect x="570.0" y="200.0" width="130.0" height="56.0" rx="6" fill="none" stroke="#000" stroke-width="1.4"/>
<text x="635.0" y="224.0" font-size="12" font-weight="bold" text-anchor="middle">Decision arbiter</text>
<text x="635.0" y="240.0" font-size="10" text-anchor="middle">4 rules</text>
<rect x="570.0" y="290.0" width="130.0" height="56.0" rx="6" fill="none" stroke="#000" stroke-width="1.4"/>
<text x="635.0" y="314.0" font-size="12" font-weight="bold" text-anchor="middle">AR renderer</text>
<text x="635.0" y="330.0" font-size="10" text-anchor="middle">OverlayScene</text>
<rect x="400.0" y="400.0" width="150.0" height="56.0" rx="6" fill="none" stroke="#000" stroke-width="1.4"/>
<text x="475.0" y="424.0" font-size="12" font-weight="bold" text-anchor="middle">Display sink</text>
<text x="475.0" y="440.0" font-size="10" text-anchor="middle">GPU, WSLg window</text>
<rect x="570.0" y="400.0" width="130.0" height="56.0" rx="6" fill="none" stroke="#000" stroke-width="1.4"/>
<text x="635.0" y="424.0" font-size="12" font-weight="bold" text-anchor="middle">Event log</text>
<text x="635.0" y="440.0" font-size="10" text-anchor="middle">fsync, evidence</text>
<rect x="20.0" y="400.0" width="150.0" height="56.0" rx="6" fill="none" stroke="#000" stroke-width="1.4"/>
<text x="95.0" y="424.0" font-size="12" font-weight="bold" text-anchor="middle">System manager</text>
<text x="95.0" y="440.0" font-size="10" text-anchor="middle">threads, health</text>
<path d="M 170.0 48.0 L 210.0 48.0" fill="none" stroke="#000" stroke-width="1.3" marker-end="url(#ah)"/>
<path d="M 285.0 76.0 L 285.0 110.0" fill="none" stroke="#000" stroke-width="1.3" marker-end="url(#ah)"/>
<path d="M 170.0 138.0 L 210.0 138.0" fill="none" stroke="#000" stroke-width="1.3" marker-end="url(#ah)"/>
<path d="M 360.0 138.0 L 400.0 138.0" fill="none" stroke="#000" stroke-width="1.3" marker-end="url(#ah)"/>
<path d="M 170.0 228.0 L 210.0 228.0" fill="none" stroke="#000" stroke-width="1.3" marker-end="url(#ah)"/>
<path d="M 360.0 228.0 L 400.0 228.0" fill="none" stroke="#000" stroke-width="1.3" marker-end="url(#ah)"/>
<path d="M 475.0 166.0 L 475.0 200.0" fill="none" stroke="#000" stroke-width="1.3" marker-end="url(#ah)"/>
<path d="M 550.0 138.0 L 570.0 138.0" fill="none" stroke="#000" stroke-width="1.3" marker-end="url(#ah)"/>
<path d="M 635.0 166.0 L 635.0 200.0" fill="none" stroke="#000" stroke-width="1.3" marker-end="url(#ah)"/>
<path d="M 550.0 228.0 L 570.0 228.0" fill="none" stroke="#000" stroke-width="1.3" marker-end="url(#ah)"/>
<path d="M 170.0 318.0 L 210.0 318.0" fill="none" stroke="#000" stroke-width="1.3" marker-end="url(#ah)"/>
<path d="M 360.0 318.0 L 400.0 318.0" fill="none" stroke="#000" stroke-width="1.3" marker-end="url(#ah)"/>
<path d="M 550.0 318.0 L 570.0 318.0" fill="none" stroke="#000" stroke-width="1.3" marker-end="url(#ah)"/>
<path d="M 285.0 256.0 L 285.0 290.0" fill="none" stroke="#000" stroke-width="1.3" marker-end="url(#ah)"/>
<path d="M 635.0 346.0 L 635.0 370.0 L 475.0 370.0 L 475.0 400.0" fill="none" stroke="#000" stroke-width="1.3" marker-end="url(#ah)"/>
<path d="M 700.0 228.0 L 712.0 228.0 L 712.0 428.0 L 700.0 428.0" fill="none" stroke="#000" stroke-width="1.3" marker-end="url(#ah)"/>
<path d="M 570.0 214.0 L 560.0 214.0 L 560.0 190.0 L 95.0 190.0 L 95.0 200.0" fill="none" stroke="#000" stroke-width="1.3" marker-end="url(#ah)"/>
<text x="300.0" y="183.0" font-size="11" font-style="italic" text-anchor="start">ActuationRequest (the only producer)</text>
<path d="M 360.0 48.0 L 660.0 48.0 L 660.0 110.0" fill="none" stroke="#000" stroke-width="1.3" marker-end="url(#ah)"/>
<text x="430.0" y="42.0" font-size="11" font-style="italic" text-anchor="start">DetectionFrame (masks, lanes, signs)</text>
<text x="20.0" y="490.0" font-size="11" font-style="italic" text-anchor="start">Each arrow is a lock-free single-producer/single-consumer ring buffer carrying a FlatBuffers</text>
<text x="20.0" y="506.0" font-size="11" font-style="italic" text-anchor="start">message; consumers take the newest item, so a slow stage never makes another fall behind.</text>
</svg>
