  0
SECTION
  2
BLOCKS
  0
ENDSEC
  0
SECTION
  2
ENTITIES
  0
LINE
  8
0
 10
66.3053
 20
-74.9144
 11
67.5882
 21
-74.6593
  0
LINE
  8
0
 10
67.5882
 20
-74.6593
 11
68.8268
 21
-74.2388
  0
LINE
  8
0
 10
68.8268
 20
-74.2388
 11
70
 21
-73.6602
  0
LINE
  8
0
 10
70
 20
-73.6602
 11
71.0876
 21
-72.9335
  0
LINE
  8
0
 10
71.0876
 20
-72.9335
 11
72.0711
 21
-72.0711
  0
LINE
  8
0
 10
72.0711
 20
-72.0711
 11
72.9335
 21
-71.0876
  0
LINE
  8
0
 10
72.9335
 20
-71.0876
 11
73.6602
 21
-70
  0
LINE
  8
0
 10
73.6602
 20
-70
 11
74.2388
 21
-68.8268
  0
LINE
  8
0
 10
74.2388
 20
-68.8268
 11
74.6593
 21
-67.5882
  0
LINE
  8
0
 10
74.6593
 20
-67.5882
 11
74.9144
 21
-66.3053
  0
LINE
  8
0
 10
74.9144
 20
-66.3053
 11
75
 21
-65
  0
LINE
  8
0
 10
75
 20
-65
 11
75
 21
65
  0
LINE
  8
0
 10
75
 20
65
 11
74.9144
 21
66.3053
  0
LINE
  8
0
 10
74.9144
 20
66.3053
 11
74.6593
 21
67.5882
  0
LINE
  8
0
 10
74.6593
 20
67.5882
 11
74.2388
 21
68.8268
  0
LINE
  8
0
 10
74.2388
 20
68.8268
 11
73.6602
 21
70
  0
LINE
  8
0
 10
73.6602
 20
70
 11
72.9335
 21
71.0876
  0
LINE
  8
0
 10
72.9335
 20
71.0876
 11
72.0711
 21
72.0711
  0
LINE
  8
0
 10
72.0711
 20
72.0711
 11
71.0876
 21
72.9335
  0
LINE
  8
0
 10
71.0876
 20
72.9335
 11
70
 21
73.6602
  0
LINE
  8
0
 10
70
 20
73.6602
 11
68.8268
 21
74.2388
  0
LINE
  8
0
 10
68.8268
 20
74.2388
 11
67.5882
 21
74.6593
  0
LINE
  8
0
 10
67.5882
 20
74.6593
 11
66.3053
 21
74.9144
  0
LINE
  8
0
 10
66.3053
 20
74.9144
 11
65
 21
75
  0
LINE
  8
0
 10
65
 20
75
 11
-65
 21
75
  0
LINE
  8
0
 10
-65
 20
75
 11
-66.3053
 21
74.9144
  0
LINE
  8
0
 10
-66.3053
 20
74.9144
 11
-67.5882
 21
74.6593
  0
LINE
  8
0
 10
-67.5882
 20
74.6593
 11
-68.8268
 21
74.2388
  0
LINE
  8
0
 10
-68.8268
 20
74.2388
 11
-70
 21
73.6602
  0
LINE
  8
0
 10
-70
 20
73.6602
 11
-71.0876
 21
72.9335
  0
LINE
  8
0
 10
-71.0876
 20
72.9335
 11
-72.0711
 21
72.0711
  0
LINE
  8
0
 10
-72.0711
 20
72.0711
 11
-72.9335
 21
71.0876
  0
LINE
  8
0
 10
-72.9335
 20
71.0876
 11
-73.6602
 21
70
  0
LINE
  8
0
 10
-73.6602
 20
70
 11
-74.2388
 21
68.8268
  0
LINE
  8
0
 10
-74.2388
 20
68.8268
 11
-74.6593
 21
67.5882
  0
LINE
  8
0
 10
-74.6593
 20
67.5882
 11
-74.9144
 21
66.3053
  0
LINE
  8
0
 10
-74.9144
 20
66.3053
 11
-75
 21
65
  0
LINE
  8
0
 10
-75
 20
65
 11
-75
 21
-65
  0
LINE
  8
0
 10
-75
 20
-65
 11
-74.9144
 21
-66.3053
  0
LINE
  8
0
 10
-74.9144
 20
-66.3053
 11
-74.6593
 21
-67.5882
  0
LINE
  8
0
 10
-74.6593
 20
-67.5882
 11
-74.2388
 21
-68.8268
  0
LINE
  8
0
 10
-74.2388
 20
-68.8268
 11
-73.6602
 21
-70
  0
LINE
  8
0
 10
-73.6602
 20
-70
 11
-72.9335
 21
-71.0876
  0
LINE
  8
0
 10
-72.9335
 20
-71.0876
 11
-72.0711
 21
-72.0711
  0
LINE
  8
0
 10
-72.0711
 20
-72.0711
 11
-71.0876
 21
-72.9335
  0
LINE
  8
0
 10
-71.0876
 20
-72.9335
 11
-70
 21
-73.6602
  0
LINE
  8
0
 10
-70
 20
-73.6602
 11
-68.8268
 21
-74.2388
  0
LINE
  8
0
 10
-68.8268
 20
-74.2388
 11
-67.5882
 21
-74.6593
  0
LINE
  8
0
 10
-67.5882
 20
-74.6593
 11
-66.3053
 21
-74.9144
  0
LINE
  8
0
 10
-66.3053
 20
-74.9144
 11
-65
 21
-75
  0
LINE
  8
0
 10
-65
 20
-75
 11
65
 21
-75
  0
LINE
  8
0
 10
65
 20
-75
 11
66.3053
 21
-74.9144
  0
LINE
  8
0
 10
59.5758
 20
56.7778
 11
59.1588
 21
56.8607
  0
LINE
  8
0
 10
59.1588
 20
56.8607
 11
58.7563
 21
56.9974
  0
LINE
  8
0
 10
58.7563
 20
56.9974
 11
58.375
 21
57.1854
  0
LINE
  8
0
 10
58.375
 20
57.1854
 11
58.0215
 21
57.4216
  0
LINE
  8
0
 10
58.0215
 20
57.4216
 11
57.7019
 21
57.7019
  0
LINE
  8
0
 10
57.7019
 20
57.7019
 11
57.4216
 21
58.0215
  0
LINE
  8
0
 10
57.4216
 20
58.0215
 11
57.1854
 21
58.375
  0
LINE
  8
0
 10
57.1854
 20
58.375
 11
56.9974
 21
58.7563
  0
LINE
  8
0
 10
56.9974
 20
58.7563
 11
56.8607
 21
59.1588
  0
LINE
  8
0
 10
56.8607
 20
59.1588
 11
56.7778
 21
59.5758
  0
LINE
  8
0
 10
56.7778
 20
59.5758
 11
56.75
 21
60
  0
LINE
  8
0
 10
56.75
 20
60
 11
56.7778
 21
60.4242
  0
LINE
  8
0
 10
56.7778
 20
60.4242
 11
56.8607
 21
60.8412
  0
LINE
  8
0
 10
56.8607
 20
60.8412
 11
56.9974
 21
61.2437
  0
LINE
  8
0
 10
56.9974
 20
61.2437
 11
57.1854
 21
61.625
  0
LINE
  8
0
 10
57.1854
 20
61.625
 11
57.4216
 21
61.9785
  0
LINE
  8
0
 10
57.4216
 20
61.9785
 11
57.7019
 21
62.2981
  0
LINE
  8
0
 10
57.7019
 20
62.2981
 11
58.0215
 21
62.5784
  0
LINE
  8
0
 10
58.0215
 20
62.5784
 11
58.375
 21
62.8146
  0
LINE
  8
0
 10
58.375
 20
62.8146
 11
58.7563
 21
63.0026
  0
LINE
  8
0
 10
58.7563
 20
63.0026
 11
59.1588
 21
63.1393
  0
LINE
  8
0
 10
59.1588
 20
63.1393
 11
59.5758
 21
63.2222
  0
LINE
  8
0
 10
59.5758
 20
63.2222
 11
60
 21
63.25
  0
LINE
  8
0
 10
60
 20
63.25
 11
60.4242
 21
63.2222
  0
LINE
  8
0
 10
60.4242
 20
63.2222
 11
60.8412
 21
63.1393
  0
LINE
  8
0
 10
60.8412
 20
63.1393
 11
61.2437
 21
63.0026
  0
LINE
  8
0
 10
61.2437
 20
63.0026
 11
61.625
 21
62.8146
  0
LINE
  8
0
 10
61.625
 20
62.8146
 11
61.9785
 21
62.5784
  0
LINE
  8
0
 10
61.9785
 20
62.5784
 11
62.2981
 21
62.2981
  0
LINE
  8
0
 10
62.2981
 20
62.2981
 11
62.5784
 21
61.9785
  0
LINE
  8
0
 10
62.5784
 20
61.9785
 11
62.8146
 21
61.625
  0
LINE
  8
0
 10
62.8146
 20
61.625
 11
63.0026
 21
61.2437
  0
LINE
  8
0
 10
63.0026
 20
61.2437
 11
63.1393
 21
60.8412
  0
LINE
  8
0
 10
63.1393
 20
60.8412
 11
63.2222
 21
60.4242
  0
LINE
  8
0
 10
63.2222
 20
60.4242
 11
63.25
 21
60
  0
LINE
  8
0
 10
63.25
 20
60
 11
63.2222
 21
59.5758
  0
LINE
  8
0
 10
63.2222
 20
59.5758
 11
63.1393
 21
59.1588
  0
LINE
  8
0
 10
63.1393
 20
59.1588
 11
63.0026
 21
58.7563
  0
LINE
  8
0
 10
63.0026
 20
58.7563
 11
62.8146
 21
58.375
  0
LINE
  8
0
 10
62.8146
 20
58.375
 11
62.5784
 21
58.0215
  0
LINE
  8
0
 10
62.5784
 20
58.0215
 11
62.2981
 21
57.7019
  0
LINE
  8
0
 10
62.2981
 20
57.7019
 11
61.9785
 21
57.4216
  0
LINE
  8
0
 10
61.9785
 20
57.4216
 11
61.625
 21
57.1854
  0
LINE
  8
0
 10
61.625
 20
57.1854
 11
61.2437
 21
56.9974
  0
LINE
  8
0
 10
61.2437
 20
56.9974
 11
60.8412
 21
56.8607
  0
LINE
  8
0
 10
60.8412
 20
56.8607
 11
60.4242
 21
56.7778
  0
LINE
  8
0
 10
60.4242
 20
56.7778
 11
60
 21
56.75
  0
LINE
  8
0
 10
60
 20
56.75
 11
59.5758
 21
56.7778
  0
LINE
  8
0
 10
-60.4242
 20
56.7778
 11
-60.8412
 21
56.8607
  0
LINE
  8
0
 10
-60.8412
 20
56.8607
 11
-61.2437
 21
56.9974
  0
LINE
  8
0
 10
-61.2437
 20
56.9974
 11
-61.625
 21
57.1854
  0
LINE
  8
0
 10
-61.625
 20
57.1854
 11
-61.9785
 21
57.4216
  0
LINE
  8
0
 10
-61.9785
 20
57.4216
 11
-62.2981
 21
57.7019
  0
LINE
  8
0
 10
-62.2981
 20
57.7019
 11
-62.5784
 21
58.0215
  0
LINE
  8
0
 10
-62.5784
 20
58.0215
 11
-62.8146
 21
58.375
  0
LINE
  8
0
 10
-62.8146
 20
58.375
 11
-63.0026
 21
58.7563
  0
LINE
  8
0
 10
-63.0026
 20
58.7563
 11
-63.1393
 21
59.1588
  0
LINE
  8
0
 10
-63.1393
 20
59.1588
 11
-63.2222
 21
59.5758
  0
LINE
  8
0
 10
-63.2222
 20
59.5758
 11
-63.25
 21
60
  0
LINE
  8
0
 10
-63.25
 20
60
 11
-63.2222
 21
60.4242
  0
LINE
  8
0
 10
-63.2222
 20
60.4242
 11
-63.1393
 21
60.8412
  0
LINE
  8
0
 10
-63.1393
 20
60.8412
 11
-63.0026
 21
61.2437
  0
LINE
  8
0
 10
-63.0026
 20
61.2437
 11
-62.8146
 21
61.625
  0
LINE
  8
0
 10
-62.8146
 20
61.625
 11
-62.5784
 21
61.9785
  0
LINE
  8
0
 10
-62.5784
 20
61.9785
 11
-62.2981
 21
62.2981
  0
LINE
  8
0
 10
-62.2981
 20
62.2981
 11
-61.9785
 21
62.5784
  0
LINE
  8
0
 10
-61.9785
 20
62.5784
 11
-61.625
 21
62.8146
  0
LINE
  8
0
 10
-61.625
 20
62.8146
 11
-61.2437
 21
63.0026
  0
LINE
  8
0
 10
-61.2437
 20
63.0026
 11
-60.8412
 21
63.1393
  0
LINE
  8
0
 10
-60.8412
 20
63.1393
 11
-60.4242
 21
63.2222
  0
LINE
  8
0
 10
-60.4242
 20
63.2222
 11
-60
 21
63.25
  0
LINE
  8
0
 10
-60
 20
63.25
 11
-59.5758
 21
63.2222
  0
LINE
  8
0
 10
-59.5758
 20
63.2222
 11
-59.1588
 21
63.1393
  0
LINE
  8
0
 10
-59.1588
 20
63.1393
 11
-58.7563
 21
63.0026
  0
LINE
  8
0
 10
-58.7563
 20
63.0026
 11
-58.375
 21
62.8146
  0
LINE
  8
0
 10
-58.375
 20
62.8146
 11
-58.0215
 21
62.5784
  0
LINE
  8
0
 10
-58.0215
 20
62.5784
 11
-57.7019
 21
62.2981
  0
LINE
  8
0
 10
-57.7019
 20
62.2981
 11
-57.4216
 21
61.9785
  0
LINE
  8
0
 10
-57.4216
 20
61.9785
 11
-57.1854
 21
61.625
  0
LINE
  8
0
 10
-57.1854
 20
61.625
 11
-56.9974
 21
61.2437
  0
LINE
  8
0
 10
-56.9974
 20
61.2437
 11
-56.8607
 21
60.8412
  0
LINE
  8
0
 10
-56.8607
 20
60.8412
 11
-56.7778
 21
60.4242
  0
LINE
  8
0
 10
-56.7778
 20
60.4242
 11
-56.75
 21
60
  0
LINE
  8
0
 10
-56.75
 20
60
 11
-56.7778
 21
59.5758
  0
LINE
  8
0
 10
-56.7778
 20
59.5758
 11
-56.8607
 21
59.1588
  0
LINE
  8
0
 10
-56.8607
 20
59.1588
 11
-56.9974
 21
58.7563
  0
LINE
  8
0
 10
-56.9974
 20
58.7563
 11
-57.1854
 21
58.375
  0
LINE
  8
0
 10
-57.1854
 20
58.375
 11
-57.4216
 21
58.0215
  0
LINE
  8
0
 10
-57.4216
 20
58.0215
 11
-57.7019
 21
57.7019
  0
LINE
  8
0
 10
-57.7019
 20
57.7019
 11
-58.0215
 21
57.4216
  0
LINE
  8
0
 10
-58.0215
 20
57.4216
 11
-58.375
 21
57.1854
  0
LINE
  8
0
 10
-58.375
 20
57.1854
 11
-58.7563
 21
56.9974
  0
LINE
  8
0
 10
-58.7563
 20
56.9974
 11
-59.1588
 21
56.8607
  0
LINE
  8
0
 10
-59.1588
 20
56.8607
 11
-59.5758
 21
56.7778
  0
LINE
  8
0
 10
-59.5758
 20
56.7778
 11
-60
 21
56.75
  0
LINE
  8
0
 10
-60
 20
56.75
 11
-60.4242
 21
56.7778
  0
LINE
  8
0
 10
-52
 20
35
 11
-52
 21
45
  0
LINE
  8
0
 10
-52
 20
45
 11
-48
 21
45
  0
LINE
  8
0
 10
-48
 20
45
 11
-48
 21
35
  0
LINE
  8
0
 10
-48
 20
35
 11
-52
 21
35
  0
LINE
  8
0
 10
34.7063
 20
32.7692
 11
34.4176
 21
32.8267
  0
LINE
  8
0
 10
34.4176
 20
32.8267
 11
34.139
 21
32.9213
  0
LINE
  8
0
 10
34.139
 20
32.9213
 11
33.875
 21
33.0514
  0
LINE
  8
0
 10
33.875
 20
33.0514
 11
33.6303
 21
33.215
  0
LINE
  8
0
 10
33.6303
 20
33.215
 11
33.409
 21
33.409
  0
LINE
  8
0
 10
33.409
 20
33.409
 11
33.215
 21
33.6303
  0
LINE
  8
0
 10
33.215
 20
33.6303
 11
33.0514
 21
33.875
  0
LINE
  8
0
 10
33.0514
 20
33.875
 11
32.9213
 21
34.139
  0
LINE
  8
0
 10
32.9213
 20
34.139
 11
32.8267
 21
34.4176
  0
LINE
  8
0
 10
32.8267
 20
34.4176
 11
32.7692
 21
34.7063
  0
LINE
  8
0
 10
32.7692
 20
34.7063
 11
32.75
 21
35
  0
LINE
  8
0
 10
32.75
 20
35
 11
32.7692
 21
35.2937
  0
LINE
  8
0
 10
32.7692
 20
35.2937
 11
32.8267
 21
35.5823
  0
LINE
  8
0
 10
32.8267
 20
35.5823
 11
32.9213
 21
35.861
  0
LINE
  8
0
 10
32.9213
 20
35.861
 11
33.0514
 21
36.125
  0
LINE
  8
0
 10
33.0514
 20
36.125
 11
33.215
 21
36.3697
  0
LINE
  8
0
 10
33.215
 20
36.3697
 11
33.409
 21
36.591
  0
LINE
  8
0
 10
33.409
 20
36.591
 11
33.6303
 21
36.785
  0
LINE
  8
0
 10
33.6303
 20
36.785
 11
33.875
 21
36.9485
  0
LINE
  8
0
 10
33.875
 20
36.9485
 11
34.139
 21
37.0787
  0
LINE
  8
0
 10
34.139
 20
37.0787
 11
34.4176
 21
37.1733
  0
LINE
  8
0
 10
34.4176
 20
37.1733
 11
34.7063
 21
37.2307
  0
LINE
  8
0
 10
34.7063
 20
37.2307
 11
35
 21
37.25
  0
LINE
  8
0
 10
35
 20
37.25
 11
35.2937
 21
37.2307
  0
LINE
  8
0
 10
35.2937
 20
37.2307
 11
35.5823
 21
37.1733
  0
LINE
  8
0
 10
35.5823
 20
37.1733
 11
35.861
 21
37.0787
  0
LINE
  8
0
 10
35.861
 20
37.0787
 11
36.125
 21
36.9485
  0
LINE
  8
0
 10
36.125
 20
36.9485
 11
36.3697
 21
36.785
  0
LINE
  8
0
 10
36.3697
 20
36.785
 11
36.591
 21
36.591
  0
LINE
  8
0
 10
36.591
 20
36.591
 11
36.785
 21
36.3697
  0
LINE
  8
0
 10
36.785
 20
36.3697
 11
36.9485
 21
36.125
  0
LINE
  8
0
 10
36.9485
 20
36.125
 11
37.0787
 21
35.861
  0
LINE
  8
0
 10
37.0787
 20
35.861
 11
37.1733
 21
35.5823
  0
LINE
  8
0
 10
37.1733
 20
35.5823
 11
37.2307
 21
35.2937
  0
LINE
  8
0
 10
37.2307
 20
35.2937
 11
37.25
 21
35
  0
LINE
  8
0
 10
37.25
 20
35
 11
37.2307
 21
34.7063
  0
LINE
  8
0
 10
37.2307
 20
34.7063
 11
37.1733
 21
34.4176
  0
LINE
  8
0
 10
37.1733
 20
34.4176
 11
37.0787
 21
34.139
  0
LINE
  8
0
 10
37.0787
 20
34.139
 11
36.9485
 21
33.875
  0
LINE
  8
0
 10
36.9485
 20
33.875
 11
36.785
 21
33.6303
  0
LINE
  8
0
 10
36.785
 20
33.6303
 11
36.591
 21
33.409
  0
LINE
  8
0
 10
36.591
 20
33.409
 11
36.3697
 21
33.215
  0
LINE
  8
0
 10
36.3697
 20
33.215
 11
36.125
 21
33.0514
  0
LINE
  8
0
 10
36.125
 20
33.0514
 11
35.861
 21
32.9213
  0
LINE
  8
0
 10
35.861
 20
32.9213
 11
35.5823
 21
32.8267
  0
LINE
  8
0
 10
35.5823
 20
32.8267
 11
35.2937
 21
32.7692
  0
LINE
  8
0
 10
35.2937
 20
32.7692
 11
35
 21
32.75
  0
LINE
  8
0
 10
35
 20
32.75
 11
34.7063
 21
32.7692
  0
LINE
  8
0
 10
-35.2937
 20
32.7692
 11
-35.5823
 21
32.8267
  0
LINE
  8
0
 10
-35.5823
 20
32.8267
 11
-35.861
 21
32.9213
  0
LINE
  8
0
 10
-35.861
 20
32.9213
 11
-36.125
 21
33.0514
  0
LINE
  8
0
 10
-36.125
 20
33.0514
 11
-36.3697
 21
33.215
  0
LINE
  8
0
 10
-36.3697
 20
33.215
 11
-36.591
 21
33.409
  0
LINE
  8
0
 10
-36.591
 20
33.409
 11
-36.785
 21
33.6303
  0
LINE
  8
0
 10
-36.785
 20
33.6303
 11
-36.9485
 21
33.875
  0
LINE
  8
0
 10
-36.9485
 20
33.875
 11
-37.0787
 21
34.139
  0
LINE
  8
0
 10
-37.0787
 20
34.139
 11
-37.1733
 21
34.4176
  0
LINE
  8
0
 10
-37.1733
 20
34.4176
 11
-37.2307
 21
34.7063
  0
LINE
  8
0
 10
-37.2307
 20
34.7063
 11
-37.25
 21
35
  0
LINE
  8
0
 10
-37.25
 20
35
 11
-37.2307
 21
35.2937
  0
LINE
  8
0
 10
-37.2307
 20
35.2937
 11
-37.1733
 21
35.5823
  0
LINE
  8
0
 10
-37.1733
 20
35.5823
 11
-37.0787
 21
35.861
  0
LINE
  8
0
 10
-37.0787
 20
35.861
 11
-36.9485
 21
36.125
  0
LINE
  8
0
 10
-36.9485
 20
36.125
 11
-36.785
 21
36.3697
  0
LINE
  8
0
 10
-36.785
 20
36.3697
 11
-36.591
 21
36.591
  0
LINE
  8
0
 10
-36.591
 20
36.591
 11
-36.3697
 21
36.785
  0
LINE
  8
0
 10
-36.3697
 20
36.785
 11
-36.125
 21
36.9485
  0
LINE
  8
0
 10
-36.125
 20
36.9485
 11
-35.861
 21
37.0787
  0
LINE
  8
0
 10
-35.861
 20
37.0787
 11
-35.5823
 21
37.1733
  0
LINE
  8
0
 10
-35.5823
 20
37.1733
 11
-35.2937
 21
37.2307
  0
LINE
  8
0
 10
-35.2937
 20
37.2307
 11
-35
 21
37.25
  0
LINE
  8
0
 10
-35
 20
37.25
 11
-34.7063
 21
37.2307
  0
LINE
  8
0
 10
-34.7063
 20
37.2307
 11
-34.4176
 21
37.1733
  0
LINE
  8
0
 10
-34.4176
 20
37.1733
 11
-34.139
 21
37.0787
  0
LINE
  8
0
 10
-34.139
 20
37.0787
 11
-33.875
 21
36.9485
  0
LINE
  8
0
 10
-33.875
 20
36.9485
 11
-33.6303
 21
36.785
  0
LINE
  8
0
 10
-33.6303
 20
36.785
 11
-33.409
 21
36.591
  0
LINE
  8
0
 10
-33.409
 20
36.591
 11
-33.215
 21
36.3697
  0
LINE
  8
0
 10
-33.215
 20
36.3697
 11
-33.0514
 21
36.125
  0
LINE
  8
0
 10
-33.0514
 20
36.125
 11
-32.9213
 21
35.861
  0
LINE
  8
0
 10
-32.9213
 20
35.861
 11
-32.8267
 21
35.5823
  0
LINE
  8
0
 10
-32.8267
 20
35.5823
 11
-32.7692
 21
35.2937
  0
LINE
  8
0
 10
-32.7692
 20
35.2937
 11
-32.75
 21
35
  0
LINE
  8
0
 10
-32.75
 20
35
 11
-32.7692
 21
34.7063
  0
LINE
  8
0
 10
-32.7692
 20
34.7063
 11
-32.8267
 21
34.4176
  0
LINE
  8
0
 10
-32.8267
 20
34.4176
 11
-32.9213
 21
34.139
  0
LINE
  8
0
 10
-32.9213
 20
34.139
 11
-33.0514
 21
33.875
  0
LINE
  8
0
 10
-33.0514
 20
33.875
 11
-33.215
 21
33.6303
  0
LINE
  8
0
 10
-33.215
 20
33.6303
 11
-33.409
 21
33.409
  0
LINE
  8
0
 10
-33.409
 20
33.409
 11
-33.6303
 21
33.215
  0
LINE
  8
0
 10
-33.6303
 20
33.215
 11
-33.875
 21
33.0514
  0
LINE
  8
0
 10
-33.875
 20
33.0514
 11
-34.139
 21
32.9213
  0
LINE
  8
0
 10
-34.139
 20
32.9213
 11
-34.4176
 21
32.8267
  0
LINE
  8
0
 10
-34.4176
 20
32.8267
 11
-34.7063
 21
32.7692
  0
LINE
  8
0
 10
-34.7063
 20
32.7692
 11
-35
 21
32.75
  0
LINE
  8
0
 10
-35
 20
32.75
 11
-35.2937
 21
32.7692
  0
LINE
  8
0
 10
-62.4242
 20
-3.22218
 11
-62.8412
 21
-3.13925
  0
LINE
  8
0
 10
-62.8412
 20
-3.13925
 11
-63.2437
 21
-3.00259
  0
LINE
  8
0
 10
-63.2437
 20
-3.00259
 11
-63.625
 21
-2.81458
  0
LINE
  8
0
 10
-63.625
 20
-2.81458
 11
-63.9785
 21
-2.57838
  0
LINE
  8
0
 10
-63.9785
 20
-2.57838
 11
-64.2981
 21
-2.2981
  0
LINE
  8
0
 10
-64.2981
 20
-2.2981
 11
-64.5784
 21
-1.97847
  0
LINE
  8
0
 10
-64.5784
 20
-1.97847
 11
-64.8146
 21
-1.625
  0
LINE
  8
0
 10
-64.8146
 20
-1.625
 11
-65.0026
 21
-1.24371
  0
LINE
  8
0
 10
-65.0026
 20
-1.24371
 11
-65.1393
 21
-0.841156
  0
LINE
  8
0
 10
-65.1393
 20
-0.841156
 11
-65.2222
 21
-0.42421
  0
LINE
  8
0
 10
-65.2222
 20
-0.42421
 11
-65.25
 21
0
  0
LINE
  8
0
 10
-65.25
 20
0
 11
-65.2222
 21
0.42421
  0
LINE
  8
0
 10
-65.2222
 20
0.42421
 11
-65.1393
 21
0.841156
  0
LINE
  8
0
 10
-65.1393
 20
0.841156
 11
-65.0026
 21
1.24371
  0
LINE
  8
0
 10
-65.0026
 20
1.24371
 11
-64.8146
 21
1.625
  0
LINE
  8
0
 10
-64.8146
 20
1.625
 11
-64.5784
 21
1.97847
  0
LINE
  8
0
 10
-64.5784
 20
1.97847
 11
-64.2981
 21
2.2981
  0
LINE
  8
0
 10
-64.2981
 20
2.2981
 11
-63.9785
 21
2.57838
  0
LINE
  8
0
 10
-63.9785
 20
2.57838
 11
-63.625
 21
2.81458
  0
LINE
  8
0
 10
-63.625
 20
2.81458
 11
-63.2437
 21
3.00259
  0
LINE
  8
0
 10
-63.2437
 20
3.00259
 11
-62.8412
 21
3.13925
  0
LINE
  8
0
 10
-62.8412
 20
3.13925
 11
-62.4242
 21
3.22218
  0
LINE
  8
0
 10
-62.4242
 20
3.22218
 11
-62
 21
3.25
  0
LINE
  8
0
 10
-62
 20
3.25
 11
-61.5758
 21
3.22218
  0
LINE
  8
0
 10
-61.5758
 20
3.22218
 11
-61.1588
 21
3.13925
  0
LINE
  8
0
 10
-61.1588
 20
3.13925
 11
-60.7563
 21
3.00259
  0
LINE
  8
0
 10
-60.7563
 20
3.00259
 11
-60.375
 21
2.81458
  0
LINE
  8
0
 10
-60.375
 20
2.81458
 11
-60.0215
 21
2.57838
  0
LINE
  8
0
 10
-60.0215
 20
2.57838
 11
-59.7019
 21
2.2981
  0
LINE
  8
0
 10
-59.7019
 20
2.2981
 11
-59.4216
 21
1.97847
  0
LINE
  8
0
 10
-59.4216
 20
1.97847
 11
-59.1854
 21
1.625
  0
LINE
  8
0
 10
-59.1854
 20
1.625
 11
-58.9974
 21
1.24371
  0
LINE
  8
0
 10
-58.9974
 20
1.24371
 11
-58.8607
 21
0.841156
  0
LINE
  8
0
 10
-58.8607
 20
0.841156
 11
-58.7778
 21
0.42421
  0
LINE
  8
0
 10
-58.7778
 20
0.42421
 11
-58.75
 21
0
  0
LINE
  8
0
 10
-58.75
 20
0
 11
-58.7778
 21
-0.42421
  0
LINE
  8
0
 10
-58.7778
 20
-0.42421
 11
-58.8607
 21
-0.841156
  0
LINE
  8
0
 10
-58.8607
 20
-0.841156
 11
-58.9974
 21
-1.24371
  0
LINE
  8
0
 10
-58.9974
 20
-1.24371
 11
-59.1854
 21
-1.625
  0
LINE
  8
0
 10
-59.1854
 20
-1.625
 11
-59.4216
 21
-1.97847
  0
LINE
  8
0
 10
-59.4216
 20
-1.97847
 11
-59.7019
 21
-2.2981
  0
LINE
  8
0
 10
-59.7019
 20
-2.2981
 11
-60.0215
 21
-2.57838
  0
LINE
  8
0
 10
-60.0215
 20
-2.57838
 11
-60.375
 21
-2.81458
  0
LINE
  8
0
 10
-60.375
 20
-2.81458
 11
-60.7563
 21
-3.00259
  0
LINE
  8
0
 10
-60.7563
 20
-3.00259
 11
-61.1588
 21
-3.13925
  0
LINE
  8
0
 10
-61.1588
 20
-3.13925
 11
-61.5758
 21
-3.22218
  0
LINE
  8
0
 10
-61.5758
 20
-3.22218
 11
-62
 21
-3.25
  0
LINE
  8
0
 10
-62
 20
-3.25
 11
-62.4242
 21
-3.22218
  0
LINE
  8
0
 10
34.7063
 20
-37.2307
 11
34.4176
 21
-37.1733
  0
LINE
  8
0
 10
34.4176
 20
-37.1733
 11
34.139
 21
-37.0787
  0
LINE
  8
0
 10
34.139
 20
-37.0787
 11
33.875
 21
-36.9485
  0
LINE
  8
0
 10
33.875
 20
-36.9485
 11
33.6303
 21
-36.785
  0
LINE
  8
0
 10
33.6303
 20
-36.785
 11
33.409
 21
-36.591
  0
LINE
  8
0
 10
33.409
 20
-36.591
 11
33.215
 21
-36.3697
  0
LINE
  8
0
 10
33.215
 20
-36.3697
 11
33.0514
 21
-36.125
  0
LINE
  8
0
 10
33.0514
 20
-36.125
 11
32.9213
 21
-35.861
  0
LINE
  8
0
 10
32.9213
 20
-35.861
 11
32.8267
 21
-35.5823
  0
LINE
  8
0
 10
32.8267
 20
-35.5823
 11
32.7692
 21
-35.2937
  0
LINE
  8
0
 10
32.7692
 20
-35.2937
 11
32.75
 21
-35
  0
LINE
  8
0
 10
32.75
 20
-35
 11
32.7692
 21
-34.7063
  0
LINE
  8
0
 10
32.7692
 20
-34.7063
 11
32.8267
 21
-34.4176
  0
LINE
  8
0
 10
32.8267
 20
-34.4176
 11
32.9213
 21
-34.139
  0
LINE
  8
0
 10
32.9213
 20
-34.139
 11
33.0514
 21
-33.875
  0
LINE
  8
0
 10
33.0514
 20
-33.875
 11
33.215
 21
-33.6303
  0
LINE
  8
0
 10
33.215
 20
-33.6303
 11
33.409
 21
-33.409
  0
LINE
  8
0
 10
33.409
 20
-33.409
 11
33.6303
 21
-33.215
  0
LINE
  8
0
 10
33.6303
 20
-33.215
 11
33.875
 21
-33.0514
  0
LINE
  8
0
 10
33.875
 20
-33.0514
 11
34.139
 21
-32.9213
  0
LINE
  8
0
 10
34.139
 20
-32.9213
 11
34.4176
 21
-32.8267
  0
LINE
  8
0
 10
34.4176
 20
-32.8267
 11
34.7063
 21
-32.7692
  0
LINE
  8
0
 10
34.7063
 20
-32.7692
 11
35
 21
-32.75
  0
LINE
  8
0
 10
35
 20
-32.75
 11
35.2937
 21
-32.7692
  0
LINE
  8
0
 10
35.2937
 20
-32.7692
 11
35.5823
 21
-32.8267
  0
LINE
  8
0
 10
35.5823
 20
-32.8267
 11
35.861
 21
-32.9213
  0
LINE
  8
0
 10
35.861
 20
-32.9213
 11
36.125
 21
-33.0514
  0
LINE
  8
0
 10
36.125
 20
-33.0514
 11
36.3697
 21
-33.215
  0
LINE
  8
0
 10
36.3697
 20
-33.215
 11
36.591
 21
-33.409
  0
LINE
  8
0
 10
36.591
 20
-33.409
 11
36.785
 21
-33.6303
  0
LINE
  8
0
 10
36.785
 20
-33.6303
 11
36.9485
 21
-33.875
  0
LINE
  8
0
 10
36.9485
 20
-33.875
 11
37.0787
 21
-34.139
  0
LINE
  8
0
 10
37.0787
 20
-34.139
 11
37.1733
 21
-34.4176
  0
LINE
  8
0
 10
37.1733
 20
-34.4176
 11
37.2307
 21
-34.7063
  0
LINE
  8
0
 10
37.2307
 20
-34.7063
 11
37.25
 21
-35
  0
LINE
  8
0
 10
37.25
 20
-35
 11
37.2307
 21
-35.2937
  0
LINE
  8
0
 10
37.2307
 20
-35.2937
 11
37.1733
 21
-35.5823
  0
LINE
  8
0
 10
37.1733
 20
-35.5823
 11
37.0787
 21
-35.861
  0
LINE
  8
0
 10
37.0787
 20
-35.861
 11
36.9485
 21
-36.125
  0
LINE
  8
0
 10
36.9485
 20
-36.125
 11
36.785
 21
-36.3697
  0
LINE
  8
0
 10
36.785
 20
-36.3697
 11
36.591
 21
-36.591
  0
LINE
  8
0
 10
36.591
 20
-36.591
 11
36.3697
 21
-36.785
  0
LINE
  8
0
 10
36.3697
 20
-36.785
 11
36.125
 21
-36.9485
  0
LINE
  8
0
 10
36.125
 20
-36.9485
 11
35.861
 21
-37.0787
  0
LINE
  8
0
 10
35.861
 20
-37.0787
 11
35.5823
 21
-37.1733
  0
LINE
  8
0
 10
35.5823
 20
-37.1733
 11
35.2937
 21
-37.2307
  0
LINE
  8
0
 10
35.2937
 20
-37.2307
 11
35
 21
-37.25
  0
LINE
  8
0
 10
35
 20
-37.25
 11
34.7063
 21
-37.2307
  0
LINE
  8
0
 10
-35.2937
 20
-37.2307
 11
-35.5823
 21
-37.1733
  0
LINE
  8
0
 10
-35.5823
 20
-37.1733
 11
-35.861
 21
-37.0787
  0
LINE
  8
0
 10
-35.861
 20
-37.0787
 11
-36.125
 21
-36.9485
  0
LINE
  8
0
 10
-36.125
 20
-36.9485
 11
-36.3697
 21
-36.785
  0
LINE
  8
0
 10
-36.3697
 20
-36.785
 11
-36.591
 21
-36.591
  0
LINE
  8
0
 10
-36.591
 20
-36.591
 11
-36.785
 21
-36.3697
  0
LINE
  8
0
 10
-36.785
 20
-36.3697
 11
-36.9485
 21
-36.125
  0
LINE
  8
0
 10
-36.9485
 20
-36.125
 11
-37.0787
 21
-35.861
  0
LINE
  8
0
 10
-37.0787
 20
-35.861
 11
-37.1733
 21
-35.5823
  0
LINE
  8
0
 10
-37.1733
 20
-35.5823
 11
-37.2307
 21
-35.2937
  0
LINE
  8
0
 10
-37.2307
 20
-35.2937
 11
-37.25
 21
-35
  0
LINE
  8
0
 10
-37.25
 20
-35
 11
-37.2307
 21
-34.7063
  0
LINE
  8
0
 10
-37.2307
 20
-34.7063
 11
-37.1733
 21
-34.4176
  0
LINE
  8
0
 10
-37.1733
 20
-34.4176
 11
-37.0787
 21
-34.139
  0
LINE
  8
0
 10
-37.0787
 20
-34.139
 11
-36.9485
 21
-33.875
  0
LINE
  8
0
 10
-36.9485
 20
-33.875
 11
-36.785
 21
-33.6303
  0
LINE
  8
0
 10
-36.785
 20
-33.6303
 11
-36.591
 21
-33.409
  0
LINE
  8
0
 10
-36.591
 20
-33.409
 11
-36.3697
 21
-33.215
  0
LINE
  8
0
 10
-36.3697
 20
-33.215
 11
-36.125
 21
-33.0514
  0
LINE
  8
0
 10
-36.125
 20
-33.0514
 11
-35.861
 21
-32.9213
  0
LINE
  8
0
 10
-35.861
 20
-32.9213
 11
-35.5823
 21
-32.8267
  0
LINE
  8
0
 10
-35.5823
 20
-32.8267
 11
-35.2937
 21
-32.7692
  0
LINE
  8
0
 10
-35.2937
 20
-32.7692
 11
-35
 21
-32.75
  0
LINE
  8
0
 10
-35
 20
-32.75
 11
-34.7063
 21
-32.7692
  0
LINE
  8
0
 10
-34.7063
 20
-32.7692
 11
-34.4176
 21
-32.8267
  0
LINE
  8
0
 10
-34.4176
 20
-32.8267
 11
-34.139
 21
-32.9213
  0
LINE
  8
0
 10
-34.139
 20
-32.9213
 11
-33.875
 21
-33.0514
  0
LINE
  8
0
 10
-33.875
 20
-33.0514
 11
-33.6303
 21
-33.215
  0
LINE
  8
0
 10
-33.6303
 20
-33.215
 11
-33.409
 21
-33.409
  0
LINE
  8
0
 10
-33.409
 20
-33.409
 11
-33.215
 21
-33.6303
  0
LINE
  8
0
 10
-33.215
 20
-33.6303
 11
-33.0514
 21
-33.875
  0
LINE
  8
0
 10
-33.0514
 20
-33.875
 11
-32.9213
 21
-34.139
  0
LINE
  8
0
 10
-32.9213
 20
-34.139
 11
-32.8267
 21
-34.4176
  0
LINE
  8
0
 10
-32.8267
 20
-34.4176
 11
-32.7692
 21
-34.7063
  0
LINE
  8
0
 10
-32.7692
 20
-34.7063
 11
-32.75
 21
-35
  0
LINE
  8
0
 10
-32.75
 20
-35
 11
-32.7692
 21
-35.2937
  0
LINE
  8
0
 10
-32.7692
 20
-35.2937
 11
-32.8267
 21
-35.5823
  0
LINE
  8
0
 10
-32.8267
 20
-35.5823
 11
-32.9213
 21
-35.861
  0
LINE
  8
0
 10
-32.9213
 20
-35.861
 11
-33.0514
 21
-36.125
  0
LINE
  8
0
 10
-33.0514
 20
-36.125
 11
-33.215
 21
-36.3697
  0
LINE
  8
0
 10
-33.215
 20
-36.3697
 11
-33.409
 21
-36.591
  0
LINE
  8
0
 10
-33.409
 20
-36.591
 11
-33.6303
 21
-36.785
  0
LINE
  8
0
 10
-33.6303
 20
-36.785
 11
-33.875
 21
-36.9485
  0
LINE
  8
0
 10
-33.875
 20
-36.9485
 11
-34.139
 21
-37.0787
  0
LINE
  8
0
 10
-34.139
 20
-37.0787
 11
-34.4176
 21
-37.1733
  0
LINE
  8
0
 10
-34.4176
 20
-37.1733
 11
-34.7063
 21
-37.2307
  0
LINE
  8
0
 10
-34.7063
 20
-37.2307
 11
-35
 21
-37.25
  0
LINE
  8
0
 10
-35
 20
-37.25
 11
-35.2937
 21
-37.2307
  0
LINE
  8
0
 10
-52
 20
-45
 11
-52
 21
-35
  0
LINE
  8
0
 10
-52
 20
-35
 11
-48
 21
-35
  0
LINE
  8
0
 10
-48
 20
-35
 11
-48
 21
-45
  0
LINE
  8
0
 10
-48
 20
-45
 11
-52
 21
-45
  0
LINE
  8
0
 10
59.5758
 20
-63.2222
 11
59.1588
 21
-63.1393
  0
LINE
  8
0
 10
59.1588
 20
-63.1393
 11
58.7563
 21
-63.0026
  0
LINE
  8
0
 10
58.7563
 20
-63.0026
 11
58.375
 21
-62.8146
  0
LINE
  8
0
 10
58.375
 20
-62.8146
 11
58.0215
 21
-62.5784
  0
LINE
  8
0
 10
58.0215
 20
-62.5784
 11
57.7019
 21
-62.2981
  0
LINE
  8
0
 10
57.7019
 20
-62.2981
 11
57.4216
 21
-61.9785
  0
LINE
  8
0
 10
57.4216
 20
-61.9785
 11
57.1854
 21
-61.625
  0
LINE
  8
0
 10
57.1854
 20
-61.625
 11
56.9974
 21
-61.2437
  0
LINE
  8
0
 10
56.9974
 20
-61.2437
 11
56.8607
 21
-60.8412
  0
LINE
  8
0
 10
56.8607
 20
-60.8412
 11
56.7778
 21
-60.4242
  0
LINE
  8
0
 10
56.7778
 20
-60.4242
 11
56.75
 21
-60
  0
LINE
  8
0
 10
56.75
 20
-60
 11
56.7778
 21
-59.5758
  0
LINE
  8
0
 10
56.7778
 20
-59.5758
 11
56.8607
 21
-59.1588
  0
LINE
  8
0
 10
56.8607
 20
-59.1588
 11
56.9974
 21
-58.7563
  0
LINE
  8
0
 10
56.9974
 20
-58.7563
 11
57.1854
 21
-58.375
  0
LINE
  8
0
 10
57.1854
 20
-58.375
 11
57.4216
 21
-58.0215
  0
LINE
  8
0
 10
57.4216
 20
-58.0215
 11
57.7019
 21
-57.7019
  0
LINE
  8
0
 10
57.7019
 20
-57.7019
 11
58.0215
 21
-57.4216
  0
LINE
  8
0
 10
58.0215
 20
-57.4216
 11
58.375
 21
-57.1854
  0
LINE
  8
0
 10
58.375
 20
-57.1854
 11
58.7563
 21
-56.9974
  0
LINE
  8
0
 10
58.7563
 20
-56.9974
 11
59.1588
 21
-56.8607
  0
LINE
  8
0
 10
59.1588
 20
-56.8607
 11
59.5758
 21
-56.7778
  0
LINE
  8
0
 10
59.5758
 20
-56.7778
 11
60
 21
-56.75
  0
LINE
  8
0
 10
60
 20
-56.75
 11
60.4242
 21
-56.7778
  0
LINE
  8
0
 10
60.4242
 20
-56.7778
 11
60.8412
 21
-56.8607
  0
LINE
  8
0
 10
60.8412
 20
-56.8607
 11
61.2437
 21
-56.9974
  0
LINE
  8
0
 10
61.2437
 20
-56.9974
 11
61.625
 21
-57.1854
  0
LINE
  8
0
 10
61.625
 20
-57.1854
 11
61.9785
 21
-57.4216
  0
LINE
  8
0
 10
61.9785
 20
-57.4216
 11
62.2981
 21
-57.7019
  0
LINE
  8
0
 10
62.2981
 20
-57.7019
 11
62.5784
 21
-58.0215
  0
LINE
  8
0
 10
62.5784
 20
-58.0215
 11
62.8146
 21
-58.375
  0
LINE
  8
0
 10
62.8146
 20
-58.375
 11
63.0026
 21
-58.7563
  0
LINE
  8
0
 10
63.0026
 20
-58.7563
 11
63.1393
 21
-59.1588
  0
LINE
  8
0
 10
63.1393
 20
-59.1588
 11
63.2222
 21
-59.5758
  0
LINE
  8
0
 10
63.2222
 20
-59.5758
 11
63.25
 21
-60
  0
LINE
  8
0
 10
63.25
 20
-60
 11
63.2222
 21
-60.4242
  0
LINE
  8
0
 10
63.2222
 20
-60.4242
 11
63.1393
 21
-60.8412
  0
LINE
  8
0
 10
63.1393
 20
-60.8412
 11
63.0026
 21
-61.2437
  0
LINE
  8
0
 10
63.0026
 20
-61.2437
 11
62.8146
 21
-61.625
  0
LINE
  8
0
 10
62.8146
 20
-61.625
 11
62.5784
 21
-61.9785
  0
LINE
  8
0
 10
62.5784
 20
-61.9785
 11
62.2981
 21
-62.2981
  0
LINE
  8
0
 10
62.2981
 20
-62.2981
 11
61.9785
 21
-62.5784
  0
LINE
  8
0
 10
61.9785
 20
-62.5784
 11
61.625
 21
-62.8146
  0
LINE
  8
0
 10
61.625
 20
-62.8146
 11
61.2437
 21
-63.0026
  0
LINE
  8
0
 10
61.2437
 20
-63.0026
 11
60.8412
 21
-63.1393
  0
LINE
  8
0
 10
60.8412
 20
-63.1393
 11
60.4242
 21
-63.2222
  0
LINE
  8
0
 10
60.4242
 20
-63.2222
 11
60
 21
-63.25
  0
LINE
  8
0
 10
60
 20
-63.25
 11
59.5758
 21
-63.2222
  0
LINE
  8
0
 10
-60.4242
 20
-63.2222
 11
-60.8412
 21
-63.1393
  0
LINE
  8
0
 10
-60.8412
 20
-63.1393
 11
-61.2437
 21
-63.0026
  0
LINE
  8
0
 10
-61.2437
 20
-63.0026
 11
-61.625
 21
-62.8146
  0
LINE
  8
0
 10
-61.625
 20
-62.8146
 11
-61.9785
 21
-62.5784
  0
LINE
  8
0
 10
-61.9785
 20
-62.5784
 11
-62.2981
 21
-62.2981
  0
LINE
  8
0
 10
-62.2981
 20
-62.2981
 11
-62.5784
 21
-61.9785
  0
LINE
  8
0
 10
-62.5784
 20
-61.9785
 11
-62.8146
 21
-61.625
  0
LINE
  8
0
 10
-62.8146
 20
-61.625
 11
-63.0026
 21
-61.2437
  0
LINE
  8
0
 10
-63.0026
 20
-61.2437
 11
-63.1393
 21
-60.8412
  0
LINE
  8
0
 10
-63.1393
 20
-60.8412
 11
-63.2222
 21
-60.4242
  0
LINE
  8
0
 10
-63.2222
 20
-60.4242
 11
-63.25
 21
-60
  0
LINE
  8
0
 10
-63.25
 20
-60
 11
-63.2222
 21
-59.5758
  0
LINE
  8
0
 10
-63.2222
 20
-59.5758
 11
-63.1393
 21
-59.1588
  0
LINE
  8
0
 10
-63.1393
 20
-59.1588
 11
-63.0026
 21
-58.7563
  0
LINE
  8
0
 10
-63.0026
 20
-58.7563
 11
-62.8146
 21
-58.375
  0
LINE
  8
0
 10
-62.8146
 20
-58.375
 11
-62.5784
 21
-58.0215
  0
LINE
  8
0
 10
-62.5784
 20
-58.0215
 11
-62.2981
 21
-57.7019
  0
LINE
  8
0
 10
-62.2981
 20
-57.7019
 11
-61.9785
 21
-57.4216
  0
LINE
  8
0
 10
-61.9785
 20
-57.4216
 11
-61.625
 21
-57.1854
  0
LINE
  8
0
 10
-61.625
 20
-57.1854
 11
-61.2437
 21
-56.9974
  0
LINE
  8
0
 10
-61.2437
 20
-56.9974
 11
-60.8412
 21
-56.8607
  0
LINE
  8
0
 10
-60.8412
 20
-56.8607
 11
-60.4242
 21
-56.7778
  0
LINE
  8
0
 10
-60.4242
 20
-56.7778
 11
-60
 21
-56.75
  0
LINE
  8
0
 10
-60
 20
-56.75
 11
-59.5758
 21
-56.7778
  0
LINE
  8
0
 10
-59.5758
 20
-56.7778
 11
-59.1588
 21
-56.8607
  0
LINE
  8
0
 10
-59.1588
 20
-56.8607
 11
-58.7563
 21
-56.9974
  0
LINE
  8
0
 10
-58.7563
 20
-56.9974
 11
-58.375
 21
-57.1854
  0
LINE
  8
0
 10
-58.375
 20
-57.1854
 11
-58.0215
 21
-57.4216
  0
LINE
  8
0
 10
-58.0215
 20
-57.4216
 11
-57.7019
 21
-57.7019
  0
LINE
  8
0
 10
-57.7019
 20
-57.7019
 11
-57.4216
 21
-58.0215
  0
LINE
  8
0
 10
-57.4216
 20
-58.0215
 11
-57.1854
 21
-58.375
  0
LINE
  8
0
 10
-57.1854
 20
-58.375
 11
-56.9974
 21
-58.7563
  0
LINE
  8
0
 10
-56.9974
 20
-58.7563
 11
-56.8607
 21
-59.1588
  0
LINE
  8
0
 10
-56.8607
 20
-59.1588
 11
-56.7778
 21
-59.5758
  0
LINE
  8
0
 10
-56.7778
 20
-59.5758
 11
-56.75
 21
-60
  0
LINE
  8
0
 10
-56.75
 20
-60
 11
-56.7778
 21
-60.4242
  0
LINE
  8
0
 10
-56.7778
 20
-60.4242
 11
-56.8607
 21
-60.8412
  0
LINE
  8
0
 10
-56.8607
 20
-60.8412
 11
-56.9974
 21
-61.2437
  0
LINE
  8
0
 10
-56.9974
 20
-61.2437
 11
-57.1854
 21
-61.625
  0
LINE
  8
0
 10
-57.1854
 20
-61.625
 11
-57.4216
 21
-61.9785
  0
LINE
  8
0
 10
-57.4216
 20
-61.9785
 11
-57.7019
 21
-62.2981
  0
LINE
  8
0
 10
-57.7019
 20
-62.2981
 11
-58.0215
 21
-62.5784
  0
LINE
  8
0
 10
-58.0215
 20
-62.5784
 11
-58.375
 21
-62.8146
  0
LINE
  8
0
 10
-58.375
 20
-62.8146
 11
-58.7563
 21
-63.0026
  0
LINE
  8
0
 10
-58.7563
 20
-63.0026
 11
-59.1588
 21
-63.1393
  0
LINE
  8
0
 10
-59.1588
 20
-63.1393
 11
-59.5758
 21
-63.2222
  0
LINE
  8
0
 10
-59.5758
 20
-63.2222
 11
-60
 21
-63.25
  0
LINE
  8
0
 10
-60
 20
-63.25
 11
-60.4242
 21
-63.2222
  0
ENDSEC
  0
SECTION
  2
OBJECTS
  0
DICTIONARY
  0
ENDSEC
  0
EOF
