  0
SECTION
  2
BLOCKS
  0
ENDSEC
  0
SECTION
  2
ENTITIES
  0
LINE
  8
0
 10
58.0442
 20
-64.9316
 11
59.0706
 21
-64.7274
  0
LINE
  8
0
 10
59.0706
 20
-64.7274
 11
60.0615
 21
-64.391
  0
LINE
  8
0
 10
60.0615
 20
-64.391
 11
61
 21
-63.9282
  0
LINE
  8
0
 10
61
 20
-63.9282
 11
61.8701
 21
-63.3468
  0
LINE
  8
0
 10
61.8701
 20
-63.3468
 11
62.6569
 21
-62.6569
  0
LINE
  8
0
 10
62.6569
 20
-62.6569
 11
63.3468
 21
-61.8701
  0
LINE
  8
0
 10
63.3468
 20
-61.8701
 11
63.9282
 21
-61
  0
LINE
  8
0
 10
63.9282
 20
-61
 11
64.391
 21
-60.0615
  0
LINE
  8
0
 10
64.391
 20
-60.0615
 11
64.7274
 21
-59.0706
  0
LINE
  8
0
 10
64.7274
 20
-59.0706
 11
64.9316
 21
-58.0442
  0
LINE
  8
0
 10
64.9316
 20
-58.0442
 11
65
 21
-57
  0
LINE
  8
0
 10
65
 20
-57
 11
65
 21
57
  0
LINE
  8
0
 10
65
 20
57
 11
64.9316
 21
58.0442
  0
LINE
  8
0
 10
64.9316
 20
58.0442
 11
64.7274
 21
59.0706
  0
LINE
  8
0
 10
64.7274
 20
59.0706
 11
64.391
 21
60.0615
  0
LINE
  8
0
 10
64.391
 20
60.0615
 11
63.9282
 21
61
  0
LINE
  8
0
 10
63.9282
 20
61
 11
63.3468
 21
61.8701
  0
LINE
  8
0
 10
63.3468
 20
61.8701
 11
62.6569
 21
62.6569
  0
LINE
  8
0
 10
62.6569
 20
62.6569
 11
61.8701
 21
63.3468
  0
LINE
  8
0
 10
61.8701
 20
63.3468
 11
61
 21
63.9282
  0
LINE
  8
0
 10
61
 20
63.9282
 11
60.0615
 21
64.391
  0
LINE
  8
0
 10
60.0615
 20
64.391
 11
59.0706
 21
64.7274
  0
LINE
  8
0
 10
59.0706
 20
64.7274
 11
58.0442
 21
64.9316
  0
LINE
  8
0
 10
58.0442
 20
64.9316
 11
57
 21
65
  0
LINE
  8
0
 10
57
 20
65
 11
-57
 21
65
  0
LINE
  8
0
 10
-57
 20
65
 11
-58.0442
 21
64.9316
  0
LINE
  8
0
 10
-58.0442
 20
64.9316
 11
-59.0706
 21
64.7274
  0
LINE
  8
0
 10
-59.0706
 20
64.7274
 11
-60.0615
 21
64.391
  0
LINE
  8
0
 10
-60.0615
 20
64.391
 11
-61
 21
63.9282
  0
LINE
  8
0
 10
-61
 20
63.9282
 11
-61.8701
 21
63.3468
  0
LINE
  8
0
 10
-61.8701
 20
63.3468
 11
-62.6569
 21
62.6569
  0
LINE
  8
0
 10
-62.6569
 20
62.6569
 11
-63.3468
 21
61.8701
  0
LINE
  8
0
 10
-63.3468
 20
61.8701
 11
-63.9282
 21
61
  0
LINE
  8
0
 10
-63.9282
 20
61
 11
-64.391
 21
60.0615
  0
LINE
  8
0
 10
-64.391
 20
60.0615
 11
-64.7274
 21
59.0706
  0
LINE
  8
0
 10
-64.7274
 20
59.0706
 11
-64.9316
 21
58.0442
  0
LINE
  8
0
 10
-64.9316
 20
58.0442
 11
-65
 21
57
  0
LINE
  8
0
 10
-65
 20
57
 11
-65
 21
-57
  0
LINE
  8
0
 10
-65
 20
-57
 11
-64.9316
 21
-58.0442
  0
LINE
  8
0
 10
-64.9316
 20
-58.0442
 11
-64.7274
 21
-59.0706
  0
LINE
  8
0
 10
-64.7274
 20
-59.0706
 11
-64.391
 21
-60.0615
  0
LINE
  8
0
 10
-64.391
 20
-60.0615
 11
-63.9282
 21
-61
  0
LINE
  8
0
 10
-63.9282
 20
-61
 11
-63.3468
 21
-61.8701
  0
LINE
  8
0
 10
-63.3468
 20
-61.8701
 11
-62.6569
 21
-62.6569
  0
LINE
  8
0
 10
-62.6569
 20
-62.6569
 11
-61.8701
 21
-63.3468
  0
LINE
  8
0
 10
-61.8701
 20
-63.3468
 11
-61
 21
-63.9282
  0
LINE
  8
0
 10
-61
 20
-63.9282
 11
-60.0615
 21
-64.391
  0
LINE
  8
0
 10
-60.0615
 20
-64.391
 11
-59.0706
 21
-64.7274
  0
LINE
  8
0
 10
-59.0706
 20
-64.7274
 11
-58.0442
 21
-64.9316
  0
LINE
  8
0
 10
-58.0442
 20
-64.9316
 11
-57
 21
-65
  0
LINE
  8
0
 10
-57
 20
-65
 11
57
 21
-65
  0
LINE
  8
0
 10
57
 20
-65
 11
58.0442
 21
-64.9316
  0
LINE
  8
0
 10
47.7063
 20
45.7692
 11
47.4176
 21
45.8267
  0
LINE
  8
0
 10
47.4176
 20
45.8267
 11
47.139
 21
45.9213
  0
LINE
  8
0
 10
47.139
 20
45.9213
 11
46.875
 21
46.0514
  0
LINE
  8
0
 10
46.875
 20
46.0514
 11
46.6303
 21
46.215
  0
LINE
  8
0
 10
46.6303
 20
46.215
 11
46.409
 21
46.409
  0
LINE
  8
0
 10
46.409
 20
46.409
 11
46.215
 21
46.6303
  0
LINE
  8
0
 10
46.215
 20
46.6303
 11
46.0514
 21
46.875
  0
LINE
  8
0
 10
46.0514
 20
46.875
 11
45.9213
 21
47.139
  0
LINE
  8
0
 10
45.9213
 20
47.139
 11
45.8267
 21
47.4176
  0
LINE
  8
0
 10
45.8267
 20
47.4176
 11
45.7692
 21
47.7063
  0
LINE
  8
0
 10
45.7692
 20
47.7063
 11
45.75
 21
48
  0
LINE
  8
0
 10
45.75
 20
48
 11
45.7692
 21
48.2937
  0
LINE
  8
0
 10
45.7692
 20
48.2937
 11
45.8267
 21
48.5823
  0
LINE
  8
0
 10
45.8267
 20
48.5823
 11
45.9213
 21
48.861
  0
LINE
  8
0
 10
45.9213
 20
48.861
 11
46.0514
 21
49.125
  0
LINE
  8
0
 10
46.0514
 20
49.125
 11
46.215
 21
49.3697
  0
LINE
  8
0
 10
46.215
 20
49.3697
 11
46.409
 21
49.591
  0
LINE
  8
0
 10
46.409
 20
49.591
 11
46.6303
 21
49.785
  0
LINE
  8
0
 10
46.6303
 20
49.785
 11
46.875
 21
49.9485
  0
LINE
  8
0
 10
46.875
 20
49.9485
 11
47.139
 21
50.0787
  0
LINE
  8
0
 10
47.139
 20
50.0787
 11
47.4176
 21
50.1733
  0
LINE
  8
0
 10
47.4176
 20
50.1733
 11
47.7063
 21
50.2307
  0
LINE
  8
0
 10
47.7063
 20
50.2307
 11
48
 21
50.25
  0
LINE
  8
0
 10
48
 20
50.25
 11
48.2937
 21
50.2307
  0
LINE
  8
0
 10
48.2937
 20
50.2307
 11
48.5823
 21
50.1733
  0
LINE
  8
0
 10
48.5823
 20
50.1733
 11
48.861
 21
50.0787
  0
LINE
  8
0
 10
48.861
 20
50.0787
 11
49.125
 21
49.9485
  0
LINE
  8
0
 10
49.125
 20
49.9485
 11
49.3697
 21
49.785
  0
LINE
  8
0
 10
49.3697
 20
49.785
 11
49.591
 21
49.591
  0
LINE
  8
0
 10
49.591
 20
49.591
 11
49.785
 21
49.3697
  0
LINE
  8
0
 10
49.785
 20
49.3697
 11
49.9485
 21
49.125
  0
LINE
  8
0
 10
49.9485
 20
49.125
 11
50.0787
 21
48.861
  0
LINE
  8
0
 10
50.0787
 20
48.861
 11
50.1733
 21
48.5823
  0
LINE
  8
0
 10
50.1733
 20
48.5823
 11
50.2307
 21
48.2937
  0
LINE
  8
0
 10
50.2307
 20
48.2937
 11
50.25
 21
48
  0
LINE
  8
0
 10
50.25
 20
48
 11
50.2307
 21
47.7063
  0
LINE
  8
0
 10
50.2307
 20
47.7063
 11
50.1733
 21
47.4176
  0
LINE
  8
0
 10
50.1733
 20
47.4176
 11
50.0787
 21
47.139
  0
LINE
  8
0
 10
50.0787
 20
47.139
 11
49.9485
 21
46.875
  0
LINE
  8
0
 10
49.9485
 20
46.875
 11
49.785
 21
46.6303
  0
LINE
  8
0
 10
49.785
 20
46.6303
 11
49.591
 21
46.409
  0
LINE
  8
0
 10
49.591
 20
46.409
 11
49.3697
 21
46.215
  0
LINE
  8
0
 10
49.3697
 20
46.215
 11
49.125
 21
46.0514
  0
LINE
  8
0
 10
49.125
 20
46.0514
 11
48.861
 21
45.9213
  0
LINE
  8
0
 10
48.861
 20
45.9213
 11
48.5823
 21
45.8267
  0
LINE
  8
0
 10
48.5823
 20
45.8267
 11
48.2937
 21
45.7692
  0
LINE
  8
0
 10
48.2937
 20
45.7692
 11
48
 21
45.75
  0
LINE
  8
0
 10
48
 20
45.75
 11
47.7063
 21
45.7692
  0
LINE
  8
0
 10
-48.2937
 20
45.7692
 11
-48.5823
 21
45.8267
  0
LINE
  8
0
 10
-48.5823
 20
45.8267
 11
-48.861
 21
45.9213
  0
LINE
  8
0
 10
-48.861
 20
45.9213
 11
-49.125
 21
46.0514
  0
LINE
  8
0
 10
-49.125
 20
46.0514
 11
-49.3697
 21
46.215
  0
LINE
  8
0
 10
-49.3697
 20
46.215
 11
-49.591
 21
46.409
  0
LINE
  8
0
 10
-49.591
 20
46.409
 11
-49.785
 21
46.6303
  0
LINE
  8
0
 10
-49.785
 20
46.6303
 11
-49.9485
 21
46.875
  0
LINE
  8
0
 10
-49.9485
 20
46.875
 11
-50.0787
 21
47.139
  0
LINE
  8
0
 10
-50.0787
 20
47.139
 11
-50.1733
 21
47.4176
  0
LINE
  8
0
 10
-50.1733
 20
47.4176
 11
-50.2307
 21
47.7063
  0
LINE
  8
0
 10
-50.2307
 20
47.7063
 11
-50.25
 21
48
  0
LINE
  8
0
 10
-50.25
 20
48
 11
-50.2307
 21
48.2937
  0
LINE
  8
0
 10
-50.2307
 20
48.2937
 11
-50.1733
 21
48.5823
  0
LINE
  8
0
 10
-50.1733
 20
48.5823
 11
-50.0787
 21
48.861
  0
LINE
  8
0
 10
-50.0787
 20
48.861
 11
-49.9485
 21
49.125
  0
LINE
  8
0
 10
-49.9485
 20
49.125
 11
-49.785
 21
49.3697
  0
LINE
  8
0
 10
-49.785
 20
49.3697
 11
-49.591
 21
49.591
  0
LINE
  8
0
 10
-49.591
 20
49.591
 11
-49.3697
 21
49.785
  0
LINE
  8
0
 10
-49.3697
 20
49.785
 11
-49.125
 21
49.9485
  0
LINE
  8
0
 10
-49.125
 20
49.9485
 11
-48.861
 21
50.0787
  0
LINE
  8
0
 10
-48.861
 20
50.0787
 11
-48.5823
 21
50.1733
  0
LINE
  8
0
 10
-48.5823
 20
50.1733
 11
-48.2937
 21
50.2307
  0
LINE
  8
0
 10
-48.2937
 20
50.2307
 11
-48
 21
50.25
  0
LINE
  8
0
 10
-48
 20
50.25
 11
-47.7063
 21
50.2307
  0
LINE
  8
0
 10
-47.7063
 20
50.2307
 11
-47.4176
 21
50.1733
  0
LINE
  8
0
 10
-47.4176
 20
50.1733
 11
-47.139
 21
50.0787
  0
LINE
  8
0
 10
-47.139
 20
50.0787
 11
-46.875
 21
49.9485
  0
LINE
  8
0
 10
-46.875
 20
49.9485
 11
-46.6303
 21
49.785
  0
LINE
  8
0
 10
-46.6303
 20
49.785
 11
-46.409
 21
49.591
  0
LINE
  8
0
 10
-46.409
 20
49.591
 11
-46.215
 21
49.3697
  0
LINE
  8
0
 10
-46.215
 20
49.3697
 11
-46.0514
 21
49.125
  0
LINE
  8
0
 10
-46.0514
 20
49.125
 11
-45.9213
 21
48.861
  0
LINE
  8
0
 10
-45.9213
 20
48.861
 11
-45.8267
 21
48.5823
  0
LINE
  8
0
 10
-45.8267
 20
48.5823
 11
-45.7692
 21
48.2937
  0
LINE
  8
0
 10
-45.7692
 20
48.2937
 11
-45.75
 21
48
  0
LINE
  8
0
 10
-45.75
 20
48
 11
-45.7692
 21
47.7063
  0
LINE
  8
0
 10
-45.7692
 20
47.7063
 11
-45.8267
 21
47.4176
  0
LINE
  8
0
 10
-45.8267
 20
47.4176
 11
-45.9213
 21
47.139
  0
LINE
  8
0
 10
-45.9213
 20
47.139
 11
-46.0514
 21
46.875
  0
LINE
  8
0
 10
-46.0514
 20
46.875
 11
-46.215
 21
46.6303
  0
LINE
  8
0
 10
-46.215
 20
46.6303
 11
-46.409
 21
46.409
  0
LINE
  8
0
 10
-46.409
 20
46.409
 11
-46.6303
 21
46.215
  0
LINE
  8
0
 10
-46.6303
 20
46.215
 11
-46.875
 21
46.0514
  0
LINE
  8
0
 10
-46.875
 20
46.0514
 11
-47.139
 21
45.9213
  0
LINE
  8
0
 10
-47.139
 20
45.9213
 11
-47.4176
 21
45.8267
  0
LINE
  8
0
 10
-47.4176
 20
45.8267
 11
-47.7063
 21
45.7692
  0
LINE
  8
0
 10
-47.7063
 20
45.7692
 11
-48
 21
45.75
  0
LINE
  8
0
 10
-48
 20
45.75
 11
-48.2937
 21
45.7692
  0
LINE
  8
0
 10
-0.195786
 20
21.5128
 11
-0.388214
 21
21.5511
  0
LINE
  8
0
 10
-0.388214
 20
21.5511
 11
-0.57402
 21
21.6142
  0
LINE
  8
0
 10
-0.57402
 20
21.6142
 11
-0.75
 21
21.701
  0
LINE
  8
0
 10
-0.75
 20
21.701
 11
-0.913132
 21
21.81
  0
LINE
  8
0
 10
-0.913132
 20
21.81
 11
-1.06065
 21
21.9393
  0
LINE
  8
0
 10
-1.06065
 20
21.9393
 11
-1.19002
 21
22.0869
  0
LINE
  8
0
 10
-1.19002
 20
22.0869
 11
-1.29903
 21
22.25
  0
LINE
  8
0
 10
-1.29903
 20
22.25
 11
-1.38582
 21
22.426
  0
LINE
  8
0
 10
-1.38582
 20
22.426
 11
-1.44888
 21
22.6118
  0
LINE
  8
0
 10
-1.44888
 20
22.6118
 11
-1.48715
 21
22.8042
  0
LINE
  8
0
 10
-1.48715
 20
22.8042
 11
-1.5
 21
23
  0
LINE
  8
0
 10
-1.5
 20
23
 11
-1.48715
 21
23.1958
  0
LINE
  8
0
 10
-1.48715
 20
23.1958
 11
-1.44888
 21
23.3882
  0
LINE
  8
0
 10
-1.44888
 20
23.3882
 11
-1.38582
 21
23.574
  0
LINE
  8
0
 10
-1.38582
 20
23.574
 11
-1.29903
 21
23.75
  0
LINE
  8
0
 10
-1.29903
 20
23.75
 11
-1.19002
 21
23.9131
  0
LINE
  8
0
 10
-1.19002
 20
23.9131
 11
-1.06065
 21
24.0607
  0
LINE
  8
0
 10
-1.06065
 20
24.0607
 11
-0.913132
 21
24.19
  0
LINE
  8
0
 10
-0.913132
 20
24.19
 11
-0.75
 21
24.299
  0
LINE
  8
0
 10
-0.75
 20
24.299
 11
-0.57402
 21
24.3858
  0
LINE
  8
0
 10
-0.57402
 20
24.3858
 11
-0.388214
 21
24.4489
  0
LINE
  8
0
 10
-0.388214
 20
24.4489
 11
-0.195786
 21
24.4872
  0
LINE
  8
0
 10
-0.195786
 20
24.4872
 11
0
 21
24.5
  0
LINE
  8
0
 10
0
 20
24.5
 11
0.195786
 21
24.4872
  0
LINE
  8
0
 10
0.195786
 20
24.4872
 11
0.388214
 21
24.4489
  0
LINE
  8
0
 10
0.388214
 20
24.4489
 11
0.57402
 21
24.3858
  0
LINE
  8
0
 10
0.57402
 20
24.3858
 11
0.75
 21
24.299
  0
LINE
  8
0
 10
0.75
 20
24.299
 11
0.913132
 21
24.19
  0
LINE
  8
0
 10
0.913132
 20
24.19
 11
1.06065
 21
24.0607
  0
LINE
  8
0
 10
1.06065
 20
24.0607
 11
1.19002
 21
23.9131
  0
LINE
  8
0
 10
1.19002
 20
23.9131
 11
1.29903
 21
23.75
  0
LINE
  8
0
 10
1.29903
 20
23.75
 11
1.38582
 21
23.574
  0
LINE
  8
0
 10
1.38582
 20
23.574
 11
1.44888
 21
23.3882
  0
LINE
  8
0
 10
1.44888
 20
23.3882
 11
1.48715
 21
23.1958
  0
LINE
  8
0
 10
1.48715
 20
23.1958
 11
1.5
 21
23
  0
LINE
  8
0
 10
1.5
 20
23
 11
1.48715
 21
22.8042
  0
LINE
  8
0
 10
1.48715
 20
22.8042
 11
1.44888
 21
22.6118
  0
LINE
  8
0
 10
1.44888
 20
22.6118
 11
1.38582
 21
22.426
  0
LINE
  8
0
 10
1.38582
 20
22.426
 11
1.29903
 21
22.25
  0
LINE
  8
0
 10
1.29903
 20
22.25
 11
1.19002
 21
22.0869
  0
LINE
  8
0
 10
1.19002
 20
22.0869
 11
1.06065
 21
21.9393
  0
LINE
  8
0
 10
1.06065
 20
21.9393
 11
0.913132
 21
21.81
  0
LINE
  8
0
 10
0.913132
 20
21.81
 11
0.75
 21
21.701
  0
LINE
  8
0
 10
0.75
 20
21.701
 11
0.57402
 21
21.6142
  0
LINE
  8
0
 10
0.57402
 20
21.6142
 11
0.388214
 21
21.5511
  0
LINE
  8
0
 10
0.388214
 20
21.5511
 11
0.195786
 21
21.5128
  0
LINE
  8
0
 10
0.195786
 20
21.5128
 11
0
 21
21.5
  0
LINE
  8
0
 10
0
 20
21.5
 11
-0.195786
 21
21.5128
  0
LINE
  8
0
 10
23.7781
 20
16.3145
 11
23.56
 21
16.3579
  0
LINE
  8
0
 10
23.56
 20
16.3579
 11
23.3494
 21
16.4294
  0
LINE
  8
0
 10
23.3494
 20
16.4294
 11
23.15
 21
16.5278
  0
LINE
  8
0
 10
23.15
 20
16.5278
 11
22.9651
 21
16.6513
  0
LINE
  8
0
 10
22.9651
 20
16.6513
 11
22.7979
 21
16.7979
  0
LINE
  8
0
 10
22.7979
 20
16.7979
 11
22.6513
 21
16.9651
  0
LINE
  8
0
 10
22.6513
 20
16.9651
 11
22.5278
 21
17.15
  0
LINE
  8
0
 10
22.5278
 20
17.15
 11
22.4294
 21
17.3494
  0
LINE
  8
0
 10
22.4294
 20
17.3494
 11
22.3579
 21
17.56
  0
LINE
  8
0
 10
22.3579
 20
17.56
 11
22.3145
 21
17.7781
  0
LINE
  8
0
 10
22.3145
 20
17.7781
 11
22.3
 21
18
  0
LINE
  8
0
 10
22.3
 20
18
 11
22.3145
 21
18.2219
  0
LINE
  8
0
 10
22.3145
 20
18.2219
 11
22.3579
 21
18.44
  0
LINE
  8
0
 10
22.3579
 20
18.44
 11
22.4294
 21
18.6506
  0
LINE
  8
0
 10
22.4294
 20
18.6506
 11
22.5278
 21
18.85
  0
LINE
  8
0
 10
22.5278
 20
18.85
 11
22.6513
 21
19.0349
  0
LINE
  8
0
 10
22.6513
 20
19.0349
 11
22.7979
 21
19.2021
  0
LINE
  8
0
 10
22.7979
 20
19.2021
 11
22.9651
 21
19.3487
  0
LINE
  8
0
 10
22.9651
 20
19.3487
 11
23.15
 21
19.4722
  0
LINE
  8
0
 10
23.15
 20
19.4722
 11
23.3494
 21
19.5706
  0
LINE
  8
0
 10
23.3494
 20
19.5706
 11
23.56
 21
19.6421
  0
LINE
  8
0
 10
23.56
 20
19.6421
 11
23.7781
 21
19.6855
  0
LINE
  8
0
 10
23.7781
 20
19.6855
 11
24
 21
19.7
  0
LINE
  8
0
 10
24
 20
19.7
 11
24.2219
 21
19.6855
  0
LINE
  8
0
 10
24.2219
 20
19.6855
 11
24.44
 21
19.6421
  0
LINE
  8
0
 10
24.44
 20
19.6421
 11
24.6506
 21
19.5706
  0
LINE
  8
0
 10
24.6506
 20
19.5706
 11
24.85
 21
19.4722
  0
LINE
  8
0
 10
24.85
 20
19.4722
 11
25.0349
 21
19.3487
  0
LINE
  8
0
 10
25.0349
 20
19.3487
 11
25.2021
 21
19.2021
  0
LINE
  8
0
 10
25.2021
 20
19.2021
 11
25.3487
 21
19.0349
  0
LINE
  8
0
 10
25.3487
 20
19.0349
 11
25.4722
 21
18.85
  0
LINE
  8
0
 10
25.4722
 20
18.85
 11
25.5706
 21
18.6506
  0
LINE
  8
0
 10
25.5706
 20
18.6506
 11
25.6421
 21
18.44
  0
LINE
  8
0
 10
25.6421
 20
18.44
 11
25.6855
 21
18.2219
  0
LINE
  8
0
 10
25.6855
 20
18.2219
 11
25.7
 21
18
  0
LINE
  8
0
 10
25.7
 20
18
 11
25.6855
 21
17.7781
  0
LINE
  8
0
 10
25.6855
 20
17.7781
 11
25.6421
 21
17.56
  0
LINE
  8
0
 10
25.6421
 20
17.56
 11
25.5706
 21
17.3494
  0
LINE
  8
0
 10
25.5706
 20
17.3494
 11
25.4722
 21
17.15
  0
LINE
  8
0
 10
25.4722
 20
17.15
 11
25.3487
 21
16.9651
  0
LINE
  8
0
 10
25.3487
 20
16.9651
 11
25.2021
 21
16.7979
  0
LINE
  8
0
 10
25.2021
 20
16.7979
 11
25.0349
 21
16.6513
  0
LINE
  8
0
 10
25.0349
 20
16.6513
 11
24.85
 21
16.5278
  0
LINE
  8
0
 10
24.85
 20
16.5278
 11
24.6506
 21
16.4294
  0
LINE
  8
0
 10
24.6506
 20
16.4294
 11
24.44
 21
16.3579
  0
LINE
  8
0
 10
24.44
 20
16.3579
 11
24.2219
 21
16.3145
  0
LINE
  8
0
 10
24.2219
 20
16.3145
 11
24
 21
16.3
  0
LINE
  8
0
 10
24
 20
16.3
 11
23.7781
 21
16.3145
  0
LINE
  8
0
 10
-24.2219
 20
16.3145
 11
-24.44
 21
16.3579
  0
LINE
  8
0
 10
-24.44
 20
16.3579
 11
-24.6506
 21
16.4294
  0
LINE
  8
0
 10
-24.6506
 20
16.4294
 11
-24.85
 21
16.5278
  0
LINE
  8
0
 10
-24.85
 20
16.5278
 11
-25.0349
 21
16.6513
  0
LINE
  8
0
 10
-25.0349
 20
16.6513
 11
-25.2021
 21
16.7979
  0
LINE
  8
0
 10
-25.2021
 20
16.7979
 11
-25.3487
 21
16.9651
  0
LINE
  8
0
 10
-25.3487
 20
16.9651
 11
-25.4722
 21
17.15
  0
LINE
  8
0
 10
-25.4722
 20
17.15
 11
-25.5706
 21
17.3494
  0
LINE
  8
0
 10
-25.5706
 20
17.3494
 11
-25.6421
 21
17.56
  0
LINE
  8
0
 10
-25.6421
 20
17.56
 11
-25.6855
 21
17.7781
  0
LINE
  8
0
 10
-25.6855
 20
17.7781
 11
-25.7
 21
18
  0
LINE
  8
0
 10
-25.7
 20
18
 11
-25.6855
 21
18.2219
  0
LINE
  8
0
 10
-25.6855
 20
18.2219
 11
-25.6421
 21
18.44
  0
LINE
  8
0
 10
-25.6421
 20
18.44
 11
-25.5706
 21
18.6506
  0
LINE
  8
0
 10
-25.5706
 20
18.6506
 11
-25.4722
 21
18.85
  0
LINE
  8
0
 10
-25.4722
 20
18.85
 11
-25.3487
 21
19.0349
  0
LINE
  8
0
 10
-25.3487
 20
19.0349
 11
-25.2021
 21
19.2021
  0
LINE
  8
0
 10
-25.2021
 20
19.2021
 11
-25.0349
 21
19.3487
  0
LINE
  8
0
 10
-25.0349
 20
19.3487
 11
-24.85
 21
19.4722
  0
LINE
  8
0
 10
-24.85
 20
19.4722
 11
-24.6506
 21
19.5706
  0
LINE
  8
0
 10
-24.6506
 20
19.5706
 11
-24.44
 21
19.6421
  0
LINE
  8
0
 10
-24.44
 20
19.6421
 11
-24.2219
 21
19.6855
  0
LINE
  8
0
 10
-24.2219
 20
19.6855
 11
-24
 21
19.7
  0
LINE
  8
0
 10
-24
 20
19.7
 11
-23.7781
 21
19.6855
  0
LINE
  8
0
 10
-23.7781
 20
19.6855
 11
-23.56
 21
19.6421
  0
LINE
  8
0
 10
-23.56
 20
19.6421
 11
-23.3494
 21
19.5706
  0
LINE
  8
0
 10
-23.3494
 20
19.5706
 11
-23.15
 21
19.4722
  0
LINE
  8
0
 10
-23.15
 20
19.4722
 11
-22.9651
 21
19.3487
  0
LINE
  8
0
 10
-22.9651
 20
19.3487
 11
-22.7979
 21
19.2021
  0
LINE
  8
0
 10
-22.7979
 20
19.2021
 11
-22.6513
 21
19.0349
  0
LINE
  8
0
 10
-22.6513
 20
19.0349
 11
-22.5278
 21
18.85
  0
LINE
  8
0
 10
-22.5278
 20
18.85
 11
-22.4294
 21
18.6506
  0
LINE
  8
0
 10
-22.4294
 20
18.6506
 11
-22.3579
 21
18.44
  0
LINE
  8
0
 10
-22.3579
 20
18.44
 11
-22.3145
 21
18.2219
  0
LINE
  8
0
 10
-22.3145
 20
18.2219
 11
-22.3
 21
18
  0
LINE
  8
0
 10
-22.3
 20
18
 11
-22.3145
 21
17.7781
  0
LINE
  8
0
 10
-22.3145
 20
17.7781
 11
-22.3579
 21
17.56
  0
LINE
  8
0
 10
-22.3579
 20
17.56
 11
-22.4294
 21
17.3494
  0
LINE
  8
0
 10
-22.4294
 20
17.3494
 11
-22.5278
 21
17.15
  0
LINE
  8
0
 10
-22.5278
 20
17.15
 11
-22.6513
 21
16.9651
  0
LINE
  8
0
 10
-22.6513
 20
16.9651
 11
-22.7979
 21
16.7979
  0
LINE
  8
0
 10
-22.7979
 20
16.7979
 11
-22.9651
 21
16.6513
  0
LINE
  8
0
 10
-22.9651
 20
16.6513
 11
-23.15
 21
16.5278
  0
LINE
  8
0
 10
-23.15
 20
16.5278
 11
-23.3494
 21
16.4294
  0
LINE
  8
0
 10
-23.3494
 20
16.4294
 11
-23.56
 21
16.3579
  0
LINE
  8
0
 10
-23.56
 20
16.3579
 11
-23.7781
 21
16.3145
  0
LINE
  8
0
 10
-23.7781
 20
16.3145
 11
-24
 21
16.3
  0
LINE
  8
0
 10
-24
 20
16.3
 11
-24.2219
 21
16.3145
  0
LINE
  8
0
 10
-0.195786
 20
-17.4872
 11
-0.388214
 21
-17.4489
  0
LINE
  8
0
 10
-0.388214
 20
-17.4489
 11
-0.57402
 21
-17.3858
  0
LINE
  8
0
 10
-0.57402
 20
-17.3858
 11
-0.75
 21
-17.299
  0
LINE
  8
0
 10
-0.75
 20
-17.299
 11
-0.913132
 21
-17.19
  0
LINE
  8
0
 10
-0.913132
 20
-17.19
 11
-1.06065
 21
-17.0607
  0
LINE
  8
0
 10
-1.06065
 20
-17.0607
 11
-1.19002
 21
-16.9131
  0
LINE
  8
0
 10
-1.19002
 20
-16.9131
 11
-1.29903
 21
-16.75
  0
LINE
  8
0
 10
-1.29903
 20
-16.75
 11
-1.38582
 21
-16.574
  0
LINE
  8
0
 10
-1.38582
 20
-16.574
 11
-1.44888
 21
-16.3882
  0
LINE
  8
0
 10
-1.44888
 20
-16.3882
 11
-1.48715
 21
-16.1958
  0
LINE
  8
0
 10
-1.48715
 20
-16.1958
 11
-1.5
 21
-16
  0
LINE
  8
0
 10
-1.5
 20
-16
 11
-1.48715
 21
-15.8042
  0
LINE
  8
0
 10
-1.48715
 20
-15.8042
 11
-1.44888
 21
-15.6118
  0
LINE
  8
0
 10
-1.44888
 20
-15.6118
 11
-1.38582
 21
-15.426
  0
LINE
  8
0
 10
-1.38582
 20
-15.426
 11
-1.29903
 21
-15.25
  0
LINE
  8
0
 10
-1.29903
 20
-15.25
 11
-1.19002
 21
-15.0869
  0
LINE
  8
0
 10
-1.19002
 20
-15.0869
 11
-1.06065
 21
-14.9393
  0
LINE
  8
0
 10
-1.06065
 20
-14.9393
 11
-0.913132
 21
-14.81
  0
LINE
  8
0
 10
-0.913132
 20
-14.81
 11
-0.75
 21
-14.701
  0
LINE
  8
0
 10
-0.75
 20
-14.701
 11
-0.57402
 21
-14.6142
  0
LINE
  8
0
 10
-0.57402
 20
-14.6142
 11
-0.388214
 21
-14.5511
  0
LINE
  8
0
 10
-0.388214
 20
-14.5511
 11
-0.195786
 21
-14.5128
  0
LINE
  8
0
 10
-0.195786
 20
-14.5128
 11
0
 21
-14.5
  0
LINE
  8
0
 10
0
 20
-14.5
 11
0.195786
 21
-14.5128
  0
LINE
  8
0
 10
0.195786
 20
-14.5128
 11
0.388214
 21
-14.5511
  0
LINE
  8
0
 10
0.388214
 20
-14.5511
 11
0.57402
 21
-14.6142
  0
LINE
  8
0
 10
0.57402
 20
-14.6142
 11
0.75
 21
-14.701
  0
LINE
  8
0
 10
0.75
 20
-14.701
 11
0.913132
 21
-14.81
  0
LINE
  8
0
 10
0.913132
 20
-14.81
 11
1.06065
 21
-14.9393
  0
LINE
  8
0
 10
1.06065
 20
-14.9393
 11
1.19002
 21
-15.0869
  0
LINE
  8
0
 10
1.19002
 20
-15.0869
 11
1.29903
 21
-15.25
  0
LINE
  8
0
 10
1.29903
 20
-15.25
 11
1.38582
 21
-15.426
  0
LINE
  8
0
 10
1.38582
 20
-15.426
 11
1.44888
 21
-15.6118
  0
LINE
  8
0
 10
1.44888
 20
-15.6118
 11
1.48715
 21
-15.8042
  0
LINE
  8
0
 10
1.48715
 20
-15.8042
 11
1.5
 21
-16
  0
LINE
  8
0
 10
1.5
 20
-16
 11
1.48715
 21
-16.1958
  0
LINE
  8
0
 10
1.48715
 20
-16.1958
 11
1.44888
 21
-16.3882
  0
LINE
  8
0
 10
1.44888
 20
-16.3882
 11
1.38582
 21
-16.574
  0
LINE
  8
0
 10
1.38582
 20
-16.574
 11
1.29903
 21
-16.75
  0
LINE
  8
0
 10
1.29903
 20
-16.75
 11
1.19002
 21
-16.9131
  0
LINE
  8
0
 10
1.19002
 20
-16.9131
 11
1.06065
 21
-17.0607
  0
LINE
  8
0
 10
1.06065
 20
-17.0607
 11
0.913132
 21
-17.19
  0
LINE
  8
0
 10
0.913132
 20
-17.19
 11
0.75
 21
-17.299
  0
LINE
  8
0
 10
0.75
 20
-17.299
 11
0.57402
 21
-17.3858
  0
LINE
  8
0
 10
0.57402
 20
-17.3858
 11
0.388214
 21
-17.4489
  0
LINE
  8
0
 10
0.388214
 20
-17.4489
 11
0.195786
 21
-17.4872
  0
LINE
  8
0
 10
0.195786
 20
-17.4872
 11
0
 21
-17.5
  0
LINE
  8
0
 10
0
 20
-17.5
 11
-0.195786
 21
-17.4872
  0
LINE
  8
0
 10
23.7781
 20
-19.6855
 11
23.56
 21
-19.6421
  0
LINE
  8
0
 10
23.56
 20
-19.6421
 11
23.3494
 21
-19.5706
  0
LINE
  8
0
 10
23.3494
 20
-19.5706
 11
23.15
 21
-19.4722
  0
LINE
  8
0
 10
23.15
 20
-19.4722
 11
22.9651
 21
-19.3487
  0
LINE
  8
0
 10
22.9651
 20
-19.3487
 11
22.7979
 21
-19.2021
  0
LINE
  8
0
 10
22.7979
 20
-19.2021
 11
22.6513
 21
-19.0349
  0
LINE
  8
0
 10
22.6513
 20
-19.0349
 11
22.5278
 21
-18.85
  0
LINE
  8
0
 10
22.5278
 20
-18.85
 11
22.4294
 21
-18.6506
  0
LINE
  8
0
 10
22.4294
 20
-18.6506
 11
22.3579
 21
-18.44
  0
LINE
  8
0
 10
22.3579
 20
-18.44
 11
22.3145
 21
-18.2219
  0
LINE
  8
0
 10
22.3145
 20
-18.2219
 11
22.3
 21
-18
  0
LINE
  8
0
 10
22.3
 20
-18
 11
22.3145
 21
-17.7781
  0
LINE
  8
0
 10
22.3145
 20
-17.7781
 11
22.3579
 21
-17.56
  0
LINE
  8
0
 10
22.3579
 20
-17.56
 11
22.4294
 21
-17.3494
  0
LINE
  8
0
 10
22.4294
 20
-17.3494
 11
22.5278
 21
-17.15
  0
LINE
  8
0
 10
22.5278
 20
-17.15
 11
22.6513
 21
-16.9651
  0
LINE
  8
0
 10
22.6513
 20
-16.9651
 11
22.7979
 21
-16.7979
  0
LINE
  8
0
 10
22.7979
 20
-16.7979
 11
22.9651
 21
-16.6513
  0
LINE
  8
0
 10
22.9651
 20
-16.6513
 11
23.15
 21
-16.5278
  0
LINE
  8
0
 10
23.15
 20
-16.5278
 11
23.3494
 21
-16.4294
  0
LINE
  8
0
 10
23.3494
 20
-16.4294
 11
23.56
 21
-16.3579
  0
LINE
  8
0
 10
23.56
 20
-16.3579
 11
23.7781
 21
-16.3145
  0
LINE
  8
0
 10
23.7781
 20
-16.3145
 11
24
 21
-16.3
  0
LINE
  8
0
 10
24
 20
-16.3
 11
24.2219
 21
-16.3145
  0
LINE
  8
0
 10
24.2219
 20
-16.3145
 11
24.44
 21
-16.3579
  0
LINE
  8
0
 10
24.44
 20
-16.3579
 11
24.6506
 21
-16.4294
  0
LINE
  8
0
 10
24.6506
 20
-16.4294
 11
24.85
 21
-16.5278
  0
LINE
  8
0
 10
24.85
 20
-16.5278
 11
25.0349
 21
-16.6513
  0
LINE
  8
0
 10
25.0349
 20
-16.6513
 11
25.2021
 21
-16.7979
  0
LINE
  8
0
 10
25.2021
 20
-16.7979
 11
25.3487
 21
-16.9651
  0
LINE
  8
0
 10
25.3487
 20
-16.9651
 11
25.4722
 21
-17.15
  0
LINE
  8
0
 10
25.4722
 20
-17.15
 11
25.5706
 21
-17.3494
  0
LINE
  8
0
 10
25.5706
 20
-17.3494
 11
25.6421
 21
-17.56
  0
LINE
  8
0
 10
25.6421
 20
-17.56
 11
25.6855
 21
-17.7781
  0
LINE
  8
0
 10
25.6855
 20
-17.7781
 11
25.7
 21
-18
  0
LINE
  8
0
 10
25.7
 20
-18
 11
25.6855
 21
-18.2219
  0
LINE
  8
0
 10
25.6855
 20
-18.2219
 11
25.6421
 21
-18.44
  0
LINE
  8
0
 10
25.6421
 20
-18.44
 11
25.5706
 21
-18.6506
  0
LINE
  8
0
 10
25.5706
 20
-18.6506
 11
25.4722
 21
-18.85
  0
LINE
  8
0
 10
25.4722
 20
-18.85
 11
25.3487
 21
-19.0349
  0
LINE
  8
0
 10
25.3487
 20
-19.0349
 11
25.2021
 21
-19.2021
  0
LINE
  8
0
 10
25.2021
 20
-19.2021
 11
25.0349
 21
-19.3487
  0
LINE
  8
0
 10
25.0349
 20
-19.3487
 11
24.85
 21
-19.4722
  0
LINE
  8
0
 10
24.85
 20
-19.4722
 11
24.6506
 21
-19.5706
  0
LINE
  8
0
 10
24.6506
 20
-19.5706
 11
24.44
 21
-19.6421
  0
LINE
  8
0
 10
24.44
 20
-19.6421
 11
24.2219
 21
-19.6855
  0
LINE
  8
0
 10
24.2219
 20
-19.6855
 11
24
 21
-19.7
  0
LINE
  8
0
 10
24
 20
-19.7
 11
23.7781
 21
-19.6855
  0
LINE
  8
0
 10
-24.2219
 20
-19.6855
 11
-24.44
 21
-19.6421
  0
LINE
  8
0
 10
-24.44
 20
-19.6421
 11
-24.6506
 21
-19.5706
  0
LINE
  8
0
 10
-24.6506
 20
-19.5706
 11
-24.85
 21
-19.4722
  0
LINE
  8
0
 10
-24.85
 20
-19.4722
 11
-25.0349
 21
-19.3487
  0
LINE
  8
0
 10
-25.0349
 20
-19.3487
 11
-25.2021
 21
-19.2021
  0
LINE
  8
0
 10
-25.2021
 20
-19.2021
 11
-25.3487
 21
-19.0349
  0
LINE
  8
0
 10
-25.3487
 20
-19.0349
 11
-25.4722
 21
-18.85
  0
LINE
  8
0
 10
-25.4722
 20
-18.85
 11
-25.5706
 21
-18.6506
  0
LINE
  8
0
 10
-25.5706
 20
-18.6506
 11
-25.6421
 21
-18.44
  0
LINE
  8
0
 10
-25.6421
 20
-18.44
 11
-25.6855
 21
-18.2219
  0
LINE
  8
0
 10
-25.6855
 20
-18.2219
 11
-25.7
 21
-18
  0
LINE
  8
0
 10
-25.7
 20
-18
 11
-25.6855
 21
-17.7781
  0
LINE
  8
0
 10
-25.6855
 20
-17.7781
 11
-25.6421
 21
-17.56
  0
LINE
  8
0
 10
-25.6421
 20
-17.56
 11
-25.5706
 21
-17.3494
  0
LINE
  8
0
 10
-25.5706
 20
-17.3494
 11
-25.4722
 21
-17.15
  0
LINE
  8
0
 10
-25.4722
 20
-17.15
 11
-25.3487
 21
-16.9651
  0
LINE
  8
0
 10
-25.3487
 20
-16.9651
 11
-25.2021
 21
-16.7979
  0
LINE
  8
0
 10
-25.2021
 20
-16.7979
 11
-25.0349
 21
-16.6513
  0
LINE
  8
0
 10
-25.0349
 20
-16.6513
 11
-24.85
 21
-16.5278
  0
LINE
  8
0
 10
-24.85
 20
-16.5278
 11
-24.6506
 21
-16.4294
  0
LINE
  8
0
 10
-24.6506
 20
-16.4294
 11
-24.44
 21
-16.3579
  0
LINE
  8
0
 10
-24.44
 20
-16.3579
 11
-24.2219
 21
-16.3145
  0
LINE
  8
0
 10
-24.2219
 20
-16.3145
 11
-24
 21
-16.3
  0
LINE
  8
0
 10
-24
 20
-16.3
 11
-23.7781
 21
-16.3145
  0
LINE
  8
0
 10
-23.7781
 20
-16.3145
 11
-23.56
 21
-16.3579
  0
LINE
  8
0
 10
-23.56
 20
-16.3579
 11
-23.3494
 21
-16.4294
  0
LINE
  8
0
 10
-23.3494
 20
-16.4294
 11
-23.15
 21
-16.5278
  0
LINE
  8
0
 10
-23.15
 20
-16.5278
 11
-22.9651
 21
-16.6513
  0
LINE
  8
0
 10
-22.9651
 20
-16.6513
 11
-22.7979
 21
-16.7979
  0
LINE
  8
0
 10
-22.7979
 20
-16.7979
 11
-22.6513
 21
-16.9651
  0
LINE
  8
0
 10
-22.6513
 20
-16.9651
 11
-22.5278
 21
-17.15
  0
LINE
  8
0
 10
-22.5278
 20
-17.15
 11
-22.4294
 21
-17.3494
  0
LINE
  8
0
 10
-22.4294
 20
-17.3494
 11
-22.3579
 21
-17.56
  0
LINE
  8
0
 10
-22.3579
 20
-17.56
 11
-22.3145
 21
-17.7781
  0
LINE
  8
0
 10
-22.3145
 20
-17.7781
 11
-22.3
 21
-18
  0
LINE
  8
0
 10
-22.3
 20
-18
 11
-22.3145
 21
-18.2219
  0
LINE
  8
0
 10
-22.3145
 20
-18.2219
 11
-22.3579
 21
-18.44
  0
LINE
  8
0
 10
-22.3579
 20
-18.44
 11
-22.4294
 21
-18.6506
  0
LINE
  8
0
 10
-22.4294
 20
-18.6506
 11
-22.5278
 21
-18.85
  0
LINE
  8
0
 10
-22.5278
 20
-18.85
 11
-22.6513
 21
-19.0349
  0
LINE
  8
0
 10
-22.6513
 20
-19.0349
 11
-22.7979
 21
-19.2021
  0
LINE
  8
0
 10
-22.7979
 20
-19.2021
 11
-22.9651
 21
-19.3487
  0
LINE
  8
0
 10
-22.9651
 20
-19.3487
 11
-23.15
 21
-19.4722
  0
LINE
  8
0
 10
-23.15
 20
-19.4722
 11
-23.3494
 21
-19.5706
  0
LINE
  8
0
 10
-23.3494
 20
-19.5706
 11
-23.56
 21
-19.6421
  0
LINE
  8
0
 10
-23.56
 20
-19.6421
 11
-23.7781
 21
-19.6855
  0
LINE
  8
0
 10
-23.7781
 20
-19.6855
 11
-24
 21
-19.7
  0
LINE
  8
0
 10
-24
 20
-19.7
 11
-24.2219
 21
-19.6855
  0
LINE
  8
0
 10
47.7063
 20
-50.2307
 11
47.4176
 21
-50.1733
  0
LINE
  8
0
 10
47.4176
 20
-50.1733
 11
47.139
 21
-50.0787
  0
LINE
  8
0
 10
47.139
 20
-50.0787
 11
46.875
 21
-49.9485
  0
LINE
  8
0
 10
46.875
 20
-49.9485
 11
46.6303
 21
-49.785
  0
LINE
  8
0
 10
46.6303
 20
-49.785
 11
46.409
 21
-49.591
  0
LINE
  8
0
 10
46.409
 20
-49.591
 11
46.215
 21
-49.3697
  0
LINE
  8
0
 10
46.215
 20
-49.3697
 11
46.0514
 21
-49.125
  0
LINE
  8
0
 10
46.0514
 20
-49.125
 11
45.9213
 21
-48.861
  0
LINE
  8
0
 10
45.9213
 20
-48.861
 11
45.8267
 21
-48.5823
  0
LINE
  8
0
 10
45.8267
 20
-48.5823
 11
45.7692
 21
-48.2937
  0
LINE
  8
0
 10
45.7692
 20
-48.2937
 11
45.75
 21
-48
  0
LINE
  8
0
 10
45.75
 20
-48
 11
45.7692
 21
-47.7063
  0
LINE
  8
0
 10
45.7692
 20
-47.7063
 11
45.8267
 21
-47.4176
  0
LINE
  8
0
 10
45.8267
 20
-47.4176
 11
45.9213
 21
-47.139
  0
LINE
  8
0
 10
45.9213
 20
-47.139
 11
46.0514
 21
-46.875
  0
LINE
  8
0
 10
46.0514
 20
-46.875
 11
46.215
 21
-46.6303
  0
LINE
  8
0
 10
46.215
 20
-46.6303
 11
46.409
 21
-46.409
  0
LINE
  8
0
 10
46.409
 20
-46.409
 11
46.6303
 21
-46.215
  0
LINE
  8
0
 10
46.6303
 20
-46.215
 11
46.875
 21
-46.0514
  0
LINE
  8
0
 10
46.875
 20
-46.0514
 11
47.139
 21
-45.9213
  0
LINE
  8
0
 10
47.139
 20
-45.9213
 11
47.4176
 21
-45.8267
  0
LINE
  8
0
 10
47.4176
 20
-45.8267
 11
47.7063
 21
-45.7692
  0
LINE
  8
0
 10
47.7063
 20
-45.7692
 11
48
 21
-45.75
  0
LINE
  8
0
 10
48
 20
-45.75
 11
48.2937
 21
-45.7692
  0
LINE
  8
0
 10
48.2937
 20
-45.7692
 11
48.5823
 21
-45.8267
  0
LINE
  8
0
 10
48.5823
 20
-45.8267
 11
48.861
 21
-45.9213
  0
LINE
  8
0
 10
48.861
 20
-45.9213
 11
49.125
 21
-46.0514
  0
LINE
  8
0
 10
49.125
 20
-46.0514
 11
49.3697
 21
-46.215
  0
LINE
  8
0
 10
49.3697
 20
-46.215
 11
49.591
 21
-46.409
  0
LINE
  8
0
 10
49.591
 20
-46.409
 11
49.785
 21
-46.6303
  0
LINE
  8
0
 10
49.785
 20
-46.6303
 11
49.9485
 21
-46.875
  0
LINE
  8
0
 10
49.9485
 20
-46.875
 11
50.0787
 21
-47.139
  0
LINE
  8
0
 10
50.0787
 20
-47.139
 11
50.1733
 21
-47.4176
  0
LINE
  8
0
 10
50.1733
 20
-47.4176
 11
50.2307
 21
-47.7063
  0
LINE
  8
0
 10
50.2307
 20
-47.7063
 11
50.25
 21
-48
  0
LINE
  8
0
 10
50.25
 20
-48
 11
50.2307
 21
-48.2937
  0
LINE
  8
0
 10
50.2307
 20
-48.2937
 11
50.1733
 21
-48.5823
  0
LINE
  8
0
 10
50.1733
 20
-48.5823
 11
50.0787
 21
-48.861
  0
LINE
  8
0
 10
50.0787
 20
-48.861
 11
49.9485
 21
-49.125
  0
LINE
  8
0
 10
49.9485
 20
-49.125
 11
49.785
 21
-49.3697
  0
LINE
  8
0
 10
49.785
 20
-49.3697
 11
49.591
 21
-49.591
  0
LINE
  8
0
 10
49.591
 20
-49.591
 11
49.3697
 21
-49.785
  0
LINE
  8
0
 10
49.3697
 20
-49.785
 11
49.125
 21
-49.9485
  0
LINE
  8
0
 10
49.125
 20
-49.9485
 11
48.861
 21
-50.0787
  0
LINE
  8
0
 10
48.861
 20
-50.0787
 11
48.5823
 21
-50.1733
  0
LINE
  8
0
 10
48.5823
 20
-50.1733
 11
48.2937
 21
-50.2307
  0
LINE
  8
0
 10
48.2937
 20
-50.2307
 11
48
 21
-50.25
  0
LINE
  8
0
 10
48
 20
-50.25
 11
47.7063
 21
-50.2307
  0
LINE
  8
0
 10
-48.2937
 20
-50.2307
 11
-48.5823
 21
-50.1733
  0
LINE
  8
0
 10
-48.5823
 20
-50.1733
 11
-48.861
 21
-50.0787
  0
LINE
  8
0
 10
-48.861
 20
-50.0787
 11
-49.125
 21
-49.9485
  0
LINE
  8
0
 10
-49.125
 20
-49.9485
 11
-49.3697
 21
-49.785
  0
LINE
  8
0
 10
-49.3697
 20
-49.785
 11
-49.591
 21
-49.591
  0
LINE
  8
0
 10
-49.591
 20
-49.591
 11
-49.785
 21
-49.3697
  0
LINE
  8
0
 10
-49.785
 20
-49.3697
 11
-49.9485
 21
-49.125
  0
LINE
  8
0
 10
-49.9485
 20
-49.125
 11
-50.0787
 21
-48.861
  0
LINE
  8
0
 10
-50.0787
 20
-48.861
 11
-50.1733
 21
-48.5823
  0
LINE
  8
0
 10
-50.1733
 20
-48.5823
 11
-50.2307
 21
-48.2937
  0
LINE
  8
0
 10
-50.2307
 20
-48.2937
 11
-50.25
 21
-48
  0
LINE
  8
0
 10
-50.25
 20
-48
 11
-50.2307
 21
-47.7063
  0
LINE
  8
0
 10
-50.2307
 20
-47.7063
 11
-50.1733
 21
-47.4176
  0
LINE
  8
0
 10
-50.1733
 20
-47.4176
 11
-50.0787
 21
-47.139
  0
LINE
  8
0
 10
-50.0787
 20
-47.139
 11
-49.9485
 21
-46.875
  0
LINE
  8
0
 10
-49.9485
 20
-46.875
 11
-49.785
 21
-46.6303
  0
LINE
  8
0
 10
-49.785
 20
-46.6303
 11
-49.591
 21
-46.409
  0
LINE
  8
0
 10
-49.591
 20
-46.409
 11
-49.3697
 21
-46.215
  0
LINE
  8
0
 10
-49.3697
 20
-46.215
 11
-49.125
 21
-46.0514
  0
LINE
  8
0
 10
-49.125
 20
-46.0514
 11
-48.861
 21
-45.9213
  0
LINE
  8
0
 10
-48.861
 20
-45.9213
 11
-48.5823
 21
-45.8267
  0
LINE
  8
0
 10
-48.5823
 20
-45.8267
 11
-48.2937
 21
-45.7692
  0
LINE
  8
0
 10
-48.2937
 20
-45.7692
 11
-48
 21
-45.75
  0
LINE
  8
0
 10
-48
 20
-45.75
 11
-47.7063
 21
-45.7692
  0
LINE
  8
0
 10
-47.7063
 20
-45.7692
 11
-47.4176
 21
-45.8267
  0
LINE
  8
0
 10
-47.4176
 20
-45.8267
 11
-47.139
 21
-45.9213
  0
LINE
  8
0
 10
-47.139
 20
-45.9213
 11
-46.875
 21
-46.0514
  0
LINE
  8
0
 10
-46.875
 20
-46.0514
 11
-46.6303
 21
-46.215
  0
LINE
  8
0
 10
-46.6303
 20
-46.215
 11
-46.409
 21
-46.409
  0
LINE
  8
0
 10
-46.409
 20
-46.409
 11
-46.215
 21
-46.6303
  0
LINE
  8
0
 10
-46.215
 20
-46.6303
 11
-46.0514
 21
-46.875
  0
LINE
  8
0
 10
-46.0514
 20
-46.875
 11
-45.9213
 21
-47.139
  0
LINE
  8
0
 10
-45.9213
 20
-47.139
 11
-45.8267
 21
-47.4176
  0
LINE
  8
0
 10
-45.8267
 20
-47.4176
 11
-45.7692
 21
-47.7063
  0
LINE
  8
0
 10
-45.7692
 20
-47.7063
 11
-45.75
 21
-48
  0
LINE
  8
0
 10
-45.75
 20
-48
 11
-45.7692
 21
-48.2937
  0
LINE
  8
0
 10
-45.7692
 20
-48.2937
 11
-45.8267
 21
-48.5823
  0
LINE
  8
0
 10
-45.8267
 20
-48.5823
 11
-45.9213
 21
-48.861
  0
LINE
  8
0
 10
-45.9213
 20
-48.861
 11
-46.0514
 21
-49.125
  0
LINE
  8
0
 10
-46.0514
 20
-49.125
 11
-46.215
 21
-49.3697
  0
LINE
  8
0
 10
-46.215
 20
-49.3697
 11
-46.409
 21
-49.591
  0
LINE
  8
0
 10
-46.409
 20
-49.591
 11
-46.6303
 21
-49.785
  0
LINE
  8
0
 10
-46.6303
 20
-49.785
 11
-46.875
 21
-49.9485
  0
LINE
  8
0
 10
-46.875
 20
-49.9485
 11
-47.139
 21
-50.0787
  0
LINE
  8
0
 10
-47.139
 20
-50.0787
 11
-47.4176
 21
-50.1733
  0
LINE
  8
0
 10
-47.4176
 20
-50.1733
 11
-47.7063
 21
-50.2307
  0
LINE
  8
0
 10
-47.7063
 20
-50.2307
 11
-48
 21
-50.25
  0
LINE
  8
0
 10
-48
 20
-50.25
 11
-48.2937
 21
-50.2307
  0
ENDSEC
  0
SECTION
  2
OBJECTS
  0
DICTIONARY
  0
ENDSEC
  0
EOF
